<svg xmlns="http://www.w3.org/2000/svg" width="236.473" height="168.149" viewBox="0 0 236.473 168.149"><path d="M509.368,1550.715a82.341,82.341,0,0,1-39.488-4.565c-18.641-32.26-30.358-65.585-38.88-98.15a286.763,286.763,0,0,1,72.966,62.542C508.151,1522.183,509.9,1535.574,509.368,1550.715Z" transform="translate(-416.924 -1390.708)" fill="#8d9341"/><path d="M475.814,1510.39c4.413,6.544,7.152,10.8,7.228,10.88l.989-.761c-.076-.152-5.63-8.75-13.924-20.847.076-.913,1.293-9.054,2.891-20.924a13.6,13.6,0,0,1-1.065-.989c-1.37,10.043-2.435,17.5-2.891,20.467-3.8-5.554-8.217-11.793-12.858-18.261,0-1.293.152-7,.3-14.685-.38-.3-.761-.609-1.217-.913-.076,6.239-.228,11.337-.3,14-7.3-10.043-15.217-20.467-22.9-29.673-.38-.228-.685-.456-1.065-.685a20.374,20.374,0,0,0,.533,2.054c4.793,5.782,9.739,12.021,14.532,18.413-1.9-.381-5.4-.989-9.815-1.75.152.533.3.989.456,1.446,5.63.989,9.663,1.674,10.5,1.826,5.4,7.228,10.576,14.38,15.293,21.076-3.12-.609-10.5-1.9-19.4-3.424a11.092,11.092,0,0,1,.533,1.445c10.272,1.75,18.489,3.272,20.01,3.5,4.489,6.467,8.445,12.25,11.641,16.967-2.054.38-10.88,2.054-21.76,4.185.152.457.38.837.533,1.294,12.1-2.435,21.684-4.185,21.836-4.185Z" transform="translate(-416.924 -1390.708)" fill="#9eaa4b"/><path d="M1766.065,1526.933a78.152,78.152,0,0,1-8.065-28.456c13.087-16.663,29.521-29.445,47.325-40.477-1.9,23.282-7.761,43.6-16.891,61.553C1782.5,1523.662,1775.043,1526.1,1766.065,1526.933Z" transform="translate(-1642.959 -1399.947)" fill="#b4b94e"/><path d="M1993.8,1458c-.533.3-1.065.685-1.522.989-1.9,3.424-4.489,8.217-7.609,13.619l-.456-8.37a10.866,10.866,0,0,0-1.141.837l.457,9.511c-3.044,5.326-6.467,11.108-10.119,17.043l-2.663-17.424-1.141.913,2.815,18.108c-3.348,5.478-6.924,10.956-10.424,16.054l.99.837c2.054-2.968,4.108-6.087,6.163-9.206l14.532,3.348c.152-.38.3-.837.457-1.217l-14.228-3.348c2.739-4.261,5.326-8.6,7.837-12.782l11.565-1.065c.152-.457.228-.913.38-1.37l-11.033.989c6.467-10.88,11.946-20.771,15.065-26.554A3.694,3.694,0,0,0,1993.8,1458Z" transform="translate(-1831.437 -1399.947)" fill="#c2c652"/><path d="M1553.3,1244.455a76.267,76.267,0,0,1-14.3-25.413c8.826-19.706,21.76-36.521,36.521-52.042,3.5,23.054,2.511,44.358-2.206,64.216C1568.521,1236.77,1561.826,1241.183,1553.3,1244.455Z" transform="translate(-1440.622 -1131.088)" fill="#9eaa4b"/><path d="M1750.195,1201.163a8.714,8.714,0,0,0,.076-1.446c-5.478,1.75-10.576,3.576-13.011,4.489,1.6-4.717,3.348-9.891,5.1-15.293.913-.685,3.88-2.815,7.685-5.4,0-.533-.076-1.065-.076-1.522-2.891,1.9-5.4,3.728-6.924,4.793,1.9-5.935,3.8-12.1,5.478-18.184l-.228-1.6a9.125,9.125,0,0,0-.837.913c-2.815,9.891-5.935,19.858-8.978,28.836-.456-3.424-1.37-9.587-2.511-15.826-.38.457-.685.837-1.065,1.294,1.522,8.065,2.511,15.978,2.663,17.2-.609,1.826-1.217,3.652-1.826,5.326l-.076.076h0c-.532,1.674-1.141,3.272-1.674,4.793-1.217-3.119-4.032-10.043-7.152-16.815a11.644,11.644,0,0,1-.837,1.217c3.576,7.684,6.62,15.521,7.38,17.424q-1.37,3.766-2.511,6.848h-.152v.457c-2.054,5.63-3.424,9.13-3.424,9.206l1.141.533c0-.076,1.293-3.424,3.348-8.9,2.511-.152,9.587-.685,16.739-.989l.228-1.37c-6.772.3-13.467.761-16.51.989,1.293-3.5,2.815-7.685,4.413-12.4C1738.478,1205.195,1744.032,1203.141,1750.195,1201.163Z" transform="translate(-1613.393 -1131.088)" fill="#b4b94e"/><path d="M976.724,857.366c-16.891-5.935-33.477-12.706-47.249-25.184-10.348-45.119-11.108-92.368-9.358-137.182A424.814,424.814,0,0,1,987.68,810.269C987.756,825.867,984.028,841.54,976.724,857.366Z" transform="translate(-868.15 -695)" fill="#9eaa4b"/><path d="M1048.184,1374.8c6.239-14.609,9.435-29.065,9.359-43.445-3.728-9.587-7.837-19.022-12.25-28.38-1.75-.837-3.576-1.75-5.554-2.511v-.152l-1.37-3.88c1.9-.228,2.511-1.217,2.587-2.207a397.05,397.05,0,0,0-20.01-35.228,3.926,3.926,0,0,0-.457,1.217s-2.207-1.6-5.554.152a4.572,4.572,0,0,0-2.435,5.25s-2.739-.3-3.043,3.348c-.3,3.728,2.511,3.957,2.511,3.957a4.206,4.206,0,0,0,3.043,3.728c-3.043,4.185,1.75,7.152,4.793,12.326v.3l-1.217,11.108c-1.978,1.522-3.956,3.272-6.011,4.869a75.9,75.9,0,0,0-7.38,6.467c-.076.076-.228.076-.38.228-3.5,2.435-7.152,10.272-9.815,18.869a194.073,194.073,0,0,0,3.652,22.445c1.6,1.446,3.956,2.815,5.63,4.109a10.984,10.984,0,0,0,3.728-.913,9.474,9.474,0,0,0,3.5-4.185c.609,3.957,1.217,7.761,1.6,11.261,2.435,1.446,4.87,2.815,7.38,4.109Z" transform="translate(-938.012 -1216.088)" fill="#8d9341"/><path d="M941.152,785.922c-4.641-.685-11.337-1.674-18.869-2.739a8.387,8.387,0,0,0-.152-1.37c8.369,1.141,15.75,2.283,20.391,2.967Zm5.478-4.413c-1.522-5.706-3.272-12.326-5.25-19.554-1.6-.913-10.119-5.859-21.152-11.945v-1.522c9.663,5.4,17.576,9.891,20.619,11.641-2.663-9.663-5.782-20.239-9.13-31.043-.837-.456-5.326-3.043-11.717-6.619v-1.522c5.174,2.891,9.13,5.174,11.108,6.315-3.272-10.424-6.848-20.923-10.5-30.815a9.206,9.206,0,0,1,.076-1.446c.456.533.913,1.141,1.37,1.674,5.4,14.761,10.576,30.891,15.065,45.88,1.065-2.891,3.424-9.13,6.391-17.043a11.6,11.6,0,0,0,.837,1.217c-3.5,9.435-6.087,16.434-6.7,17.88,2.815,9.359,5.25,18.261,7.38,26.173.685-1.217,1.75-3.272,3.272-6.087a10.9,10.9,0,0,0,.837,1.141c-2.13,3.956-3.424,6.315-3.576,6.7.761,2.891,1.446,5.554,2.13,8.065A13.3,13.3,0,0,0,946.63,781.509Z" transform="translate(-868.719 -695)" fill="#bdc546"/><path d="M1208.348,1435.792c0-.228-1.37-5.782-3.652-14.76l-.076.609c-.076,0-2.587-.38-6.619-.989l1.37-1.141c2.663.38,4.489.685,5.174.761-.38-1.293-.685-2.663-1.065-4.032a13.226,13.226,0,0,1,1.065-.913c3.12,12.1,5.022,19.934,5.022,20.162Zm-2.359-35.227a10.883,10.883,0,0,1-.837-1.141c2.283-4.261,5.4-10.271,9.13-17.423.228.38.456.837.761,1.293C1211.315,1390.446,1208.2,1396.38,1205.989,1400.565Z" transform="translate(-1125.567 -1329.73)" fill="#b0b542"/><path d="M1319.25,1239.5c-2.815-5.63-8.217-8.522-5.1-12.859a3.972,3.972,0,0,1-2.967-3.5s-2.587-.228-2.359-3.728c.3-3.5,2.891-3.2,2.891-3.2a4.345,4.345,0,0,1,2.282-4.946c3.2-1.674,5.326-.152,5.326-.152s.532-3.348,4.793-2.815c4.261.457,3.652,2.663,3.652,2.663s1.446-2.282,4.489.609c3.119,2.891.837,5.63.837,5.63s2.968-1.6,3.12,3.348a13.948,13.948,0,0,1-2.13,8.218Z" transform="translate(-1227.948 -1169.195)" fill="#c45439"/><path d="M1810.139,2644.482H1683s37.054-25.108,90.085-21C1794.161,2625.157,1810.139,2644.482,1810.139,2644.482Z" transform="translate(-1573.665 -2476.334)" fill="#fae166"/><path d="M2737,2380.891c0,9.359,7,16.891,15.6,16.891s15.6-7.532,15.6-16.891c0-9.282-7-16.891-15.6-16.891S2737,2371.609,2737,2380.891Z" transform="translate(-2547.472 -2237.014)" fill="#f5e3c0"/><path d="M2853.717,2397.174a27.584,27.584,0,0,1-5.63-17.2,28.34,28.34,0,0,1,4.489-15.673,19.6,19.6,0,0,0-2.968-.3,15.256,15.256,0,0,0-3.2.381,28.675,28.675,0,0,0-4.413,15.6,27.579,27.579,0,0,0,6.087,17.728,10.184,10.184,0,0,0,1.521.076A14.5,14.5,0,0,0,2853.717,2397.174Z" transform="translate(-2644.482 -2237.014)" fill="#f3817f"/><path d="M2664.984,2637.065c1.75-3.652-6.392-8.978-18.26-11.869-11.793-2.891-22.826-2.207-24.576,1.445s6.467,8.978,18.261,11.869C2652.277,2641.326,2663.233,2640.717,2664.984,2637.065Z" transform="translate(-2441.14 -2476.677)" fill="#fae166"/><path d="M1828,1820l1.978,28.76,10.576,21.228,16.663-9.434S1840.63,1826.239,1828,1820Z" transform="translate(-1707.633 -1734.404)" fill="#fab684"/><path d="M1868.38,2000.9a50.851,50.851,0,0,0-2.815-11.946c-2.739-7.913-7.228-18.412-9.891-24.956L1854,1981.8l10.576,21.228Z" transform="translate(-1731.655 -1867.448)" fill="#f79c70"/><path d="M1259.5,1765.334c-1.978-18.565-9.13-49.379-7.989-51.053,1.141-1.75,15.75-14.076,20.391-14.684s21.684,7.3,24.2,9.815c1.446,1.445,8.37,25.717,5.783,27.619-.3,18.26-1.522,38.8-1.522,38.8Z" transform="translate(-1174.894 -1623.13)" fill="#fab684"/><path d="M1351.12,1717.924c4.413-1.141,7.609-2.587,7.076-5.1,0,0,.076-1.522-.38-1.826-2.891,1.522-6.391,4.641-9.815,7.3A15.182,15.182,0,0,0,1351.12,1717.924Z" transform="translate(-1264.154 -1633.697)" fill="#f79c70"/><path d="M1360.193,2134.968a1.026,1.026,0,1,0-1.065,0c-1.141,1.6-19.4,2.739-21.989-2.967.989,5.174-4.109,15.064-3.272,20.315,4.718-7.685,16.739-13.239,26.4-13.239,8.522,0,12.478,4.413,17.347,10.576.152-4.261.685-8.826.761-13.087C1367.954,2137.326,1361.334,2136.413,1360.193,2134.968Z" transform="translate(-1251.01 -2022.666)" fill="#f79c70"/><path d="M1341.358,2510.673c-11.413.761-30.434,3.576-44.358.076l28.3,28.532,24.956-.608,27.695-27.7S1352.771,2509.912,1341.358,2510.673Z" transform="translate(-1217.035 -2372.273)" fill="#5e82a7"/><path d="M1532.575,2527.055c-6.315,4.26-17.043,7.076-29.293,7.076a73.411,73.411,0,0,1-9.282-.533l13.01,12.554,25.108-.3L1559.966,2518S1544.673,2524.087,1532.575,2527.055Z" transform="translate(-1399.045 -2379.297)" fill="#426785"/><path d="M1081.559,1923.26c-1.141-10.271,6.163-35.3,12.782-39.945,6.7-4.641,12.858,17.5,10.8,25.565s-4.641,15.065-7.761,16.739C1094.646,1927.141,1082.092,1927.445,1081.559,1923.26Z" transform="translate(-1017.876 -1792.318)" fill="#fab684"/><path d="M1088.635,1910.217c0-9.891,2.511-18.412,6.163-22.217l-.456.228c-6.62,4.641-13.924,29.673-12.782,39.945.38,3.119,7.608,3.728,12.326,3.2C1090.766,1927.184,1088.635,1919.271,1088.635,1910.217Z" transform="translate(-1017.876 -1797.23)" fill="#f79c70"/><path d="M1110,2248.453c11.261,1.6,28.76,18.336,28.76,18.336l-3.728,7.609s-39.488-3.2-43.6-12.25S1102.159,2247.388,1110,2248.453Z" transform="translate(-1026.454 -2130.14)" fill="#fab684"/><path d="M1287.907,2247.06c10.8,1.522,29.825,15.978,30.967,17.119l1.522.076s-21.076-16.282-32.26-17.88C1281.82,2245.538,1281.82,2246.223,1287.907,2247.06Z" transform="translate(-1204.441 -2127.987)" fill="#f79c70"/><path d="M1113.227,2286.163c-14.076-4.945-25.869-7.3-26.4-20.163-6.011,2.511-9.435,7.685-6.924,13.315,4.185,9.054,44.358,11.412,44.358,11.412l.761-1.6A68.655,68.655,0,0,1,1113.227,2286.163Z" transform="translate(-1015.686 -2146.47)" fill="#f79c70"/><path d="M1562,2683.652h30.13V2680H1562Z" transform="translate(-1461.872 -2528.97)" fill="#dac8ac"/><path d="M1638.5,2577.792c-.533-1.293.761-2.131,1.978-2.283s.228-2.511,1.065-3.576c.913-1.065,3.272-1.217,3.424,1.065C1645.2,2575.357,1639.8,2581.064,1638.5,2577.792Z" transform="translate(-1532.441 -2428.436)" fill="#fab684"/><path d="M1578.707,2450.328c3.576.913,7.761,1.674,8.75,2.891,1.065,1.217-.076,13.163-11.489,7.38S1573.229,2448.883,1578.707,2450.328Z" transform="translate(-1469.601 -2316.571)" fill="#fab684"/><path d="M1700.314,2220.229l-47.173-.229L1638,2258.651h47.249l16.434-37.434Z" transform="translate(-1532.089 -2103.97)" fill="#dac8ac"/><path d="M1884.173,2220.229,1837,2220l4.185,4.718,25.032,14.76,19.325-18.26Z" transform="translate(-1715.948 -2103.97)" fill="#fff0dc"/><path d="M1731.325,2236H1684l-14,37.434h47.325Z" transform="translate(-1561.654 -2118.752)" fill="#f2e4ce"/><path d="M1930.837,2520.119H1916L1949.326,2503Z" transform="translate(-1788.938 -2365.438)" fill="#e4d6b9"/><path d="M1863.38,2531.47s43.369,2.054,54.629-8.141-8.217-25.641-17.652-21.761C1891,2505.449,1863,2530.1,1863,2530.1Z" transform="translate(-1739.97 -2363.55)" fill="#fab684"/><path d="M1908.195,2734.684c-11.565,2.815-28.684-.761-31.043-7.685-7.761,6.315-14.152,11.946-14.152,11.946l.38,1.37s43.369,2.054,54.629-8.141a9.7,9.7,0,0,0,2.511-3.2A32.96,32.96,0,0,1,1908.195,2734.684Z" transform="translate(-1739.97 -2572.394)" fill="#f79c70"/><path d="M1093.935,2529.546s-43.14,3.043-54.781-6.924c-11.869-10.043,8.521-25.565,18.032-21.761s37.054,27.315,37.054,27.315Z" transform="translate(-975.471 -2362.919)" fill="#fab684"/><path d="M1152.1,2498.7c1.826,0,3.728.076,5.554.229a28.342,28.342,0,0,0-4.032-2.435c-3.728-1.522-9.13.381-13.619,3.424A57.255,57.255,0,0,1,1152.1,2498.7Z" transform="translate(-1071.98 -2358.934)" fill="#f79c70"/><path d="M1073.445,2580.63c-4.337,1.6-11.945,1.522-20.162-.608a54.625,54.625,0,0,1-12.706-5.022c-5.174,4.718-7.837,11.413-1.6,16.663,11.641,9.967,54.782,6.924,54.782,6.924l.3-1.37S1083.717,2588.391,1073.445,2580.63Z" transform="translate(-975.295 -2431.959)" fill="#f79c70"/><path d="M1777,2768.468l2.054,3.043a20.169,20.169,0,0,0,5.478-9.51A67.4,67.4,0,0,0,1777,2768.468Z" transform="translate(-1660.513 -2604.731)" fill="#f79c70"/><path d="M1783.043,2809.424l-.989,3.271c-5.4-1.674-9.054-6.7-9.054-6.7S1780.228,2807.978,1783.043,2809.424Z" transform="translate(-1656.818 -2645.384)" fill="#f79c70"/><path d="M1427,1569.761l1.37-14.761,12.706.609,5.782,14.076C1443.815,1573.26,1432.706,1573.641,1427,1569.761Z" transform="translate(-1337.143 -1489.567)" fill="#fab684"/><path d="M1434.413,1568.163c4.109-.3,7,.457,8.674,1.37l-5.1-14.456-13.315-.076L1423,1569.989a15.224,15.224,0,0,0,3.424,1.293A16.823,16.823,0,0,1,1434.413,1568.163Z" transform="translate(-1333.448 -1489.567)" fill="#f79c70"/><path d="M1418.717,1321.631c.761,5.783,3.5,15.978,5.25,16.815s13.924.837,14.837-.228c.913-.989-4.413-24.423-7.38-26.782C1428.38,1309.077,1417.424,1311.208,1418.717,1321.631Z" transform="translate(-1329.393 -1263.73)" fill="#fab684"/><path d="M785.532,2455l-14.532.38,1.37,23.891h13.163Z" transform="translate(-731.055 -2321.09)" fill="#f27285"/><path d="M778,2459.793l7.533-.3V2455l-14.532.38,1.37,23.891h6.391Z" transform="translate(-731.055 -2321.09)" fill="#f05b75"/><path d="M534.89,2706.978,483,2705l1.75,11.336h50.292Z" transform="translate(-464.968 -2552.068)" fill="#f4d18b"/><path d="M509.1,2705.989,483,2705l1.75,11.336H509.1Z" transform="translate(-464.968 -2552.068)" fill="#daba76"/><path d="M246,2830.858H418.79s-81.716-7.3-158.105-5.935C254.978,2825.076,246,2830.858,246,2830.858Z" transform="translate(-246 -2662.709)" fill="#fae166"/><path d="M514.978,2570H499l2.587,13.01h3.728l-2.815-10.652h10.119l1.6,10.2,4.185.685Z" transform="translate(-479.75 -2427.341)" fill="#daba76"/><path d="M893.956,2599.6l-15.978-1.6L876,2610.934h4.185l.837-10.348,10.043.837-1.75,9.13,3.652.609Z" transform="translate(-828.066 -2453.209)" fill="#f4d18b"/><path d="M317.825,2825.5c-18.489-.533-37.967-.685-57.14-.381-5.706.153-14.684,5.935-14.684,5.935h59.27C309.3,2829.148,313.488,2827.247,317.825,2825.5Z" transform="translate(-246 -2662.902)" fill="#fec759"/><path d="M779,2419.815h13.391V2417H779Z" transform="translate(-738.446 -2285.981)" fill="#f2e4ce"/><path d="M1445.486,1790.648c-6.011,2.587-9.435,2.283-8.978.989C1437.345,1789.583,1445.486,1790.648,1445.486,1790.648Z" transform="translate(-1345.89 -1707.03)" fill="#f79c70"/><path d="M1630,1779.628c4.565-1.9,7.076-1.218,6.7,0C1635.935,1781.606,1630,1779.628,1630,1779.628Z" transform="translate(-1524.698 -1696.01)" fill="#f79c70"/><path d="M1399.685,1369.7c5.4-5.022,6.391,11.869,7.913,13.01,1.446,1.065,11.641-.3,11.641-.3s2.283.533,1.826,3.8a2.871,2.871,0,0,1,.761,3.576s1.75,3.956-2.891,4.032a4.208,4.208,0,0,1-4.869.076s-2.967,1.75-4.946-.152c0,0-3.12.913-4.413-.532a4.306,4.306,0,0,1-.913-3.424s-1.217,0-1.6-1.674a13.775,13.775,0,0,1-.152-3.8l-3.043-9.054Z" transform="translate(-1311.273 -1317.509)" fill="#c45439"/><path d="M1853.109,2148.141c0-.685-.913-1.141-2.054-1.141s-2.054.456-2.054,1.141c0,.608.913,1.142,2.054,1.142S1853.109,2148.75,1853.109,2148.141Z" transform="translate(-1727.035 -2036.524)" fill="#f79c70"/><path d="M1423.051,2132.039c.076-.609-.761-1.218-1.9-1.446-1.141-.152-2.054.228-2.207.837-.076.609.761,1.293,1.9,1.445S1422.974,2132.723,1423.051,2132.039Z" transform="translate(-1329.694 -2021.334)" fill="#f79c70"/><path d="M762,2446.033h16.206V2442H762Z" transform="translate(-722.74 -2309.079)" fill="#f2e4ce"/><path d="M779,2419.815h6.163V2417H779Z" transform="translate(-738.446 -2285.981)" fill="#e4d6b9"/><path d="M762,2446.033h8.9V2442H762Z" transform="translate(-722.74 -2309.079)" fill="#e4d6b9"/><path d="M865.9,2269.152l-.913-.152L864,2280.869l.913.076Z" transform="translate(-816.979 -2149.241)" fill="#f2e4ce"/><path d="M883.533,2266.75l.076-.99-7.532-.76-.076.989Z" transform="translate(-828.066 -2145.546)" fill="#f2e4ce"/><path d="M2622,2619.99c3.2,1.75,21.608,1.065,37.282,6.239a54.511,54.511,0,0,0-12.554-5.021C2639.424,2619.458,2626.718,2619.229,2622,2619.99Z" transform="translate(-2441.221 -2473.146)" fill="#fec759"/><path d="M1412.579,1473.614c-.989-1.6-2.435-2.359-3.348-1.674-.913.609-.837,2.435.152,4.033.913,1.522,2.435,2.283,3.348,1.674S1413.568,1475.211,1412.579,1473.614Z" transform="translate(-1320.135 -1412.593)" fill="#fab684"/><path d="M1423.1,1490.532c-.609-1.065-1.6-1.522-2.206-1.141-.609.457-.533,1.6.076,2.663.609.989,1.6,1.522,2.206,1.065C1423.788,1492.739,1423.712,1491.6,1423.1,1490.532Z" transform="translate(-1331.116 -1428.827)" fill="#f08064"/><path d="M1440.012,1513.765c-.38-.609-.989-.913-1.37-.685-.38.3-.38.989.076,1.674.38.685.989.989,1.37.685C1440.469,1515.21,1440.393,1514.449,1440.012,1513.765Z" transform="translate(-1347.645 -1450.766)" fill="#fab684"/><path d="M2076.856,2410.109c.913-2.283.457-4.109-.989-4.109s-3.272,1.826-4.185,4.109c-.837,2.282-.456,4.109.989,4.109S2076.019,2412.391,2076.856,2410.109Z" transform="translate(-1932.37 -2275.818)" fill="#fff0dc"/><path d="M3003.076,2388a17.115,17.115,0,0,0-.076,1.978,15.306,15.306,0,0,0,9.587,14.532,18.633,18.633,0,0,0,.152-2.054A15.231,15.231,0,0,0,3003.076,2388Z" transform="translate(-2793.232 -2259.188)" fill="#ffeed1"/><path d="M1525.416,1462.6c-.076-.913-.609-1.6-1.065-1.6-.533,0-.913.761-.761,1.674.076.913.533,1.674,1.065,1.674C1525.187,1464.272,1525.492,1463.511,1525.416,1462.6Z" transform="translate(-1426.353 -1402.719)" fill="#5f4d50"/><path d="M1493.34,1410.821l-3.2.837c-.3,0-.457.3-.38.609l.228,1.141a.57.57,0,0,0,.609.381l3.2-.761a.544.544,0,0,0,.38-.685l-.228-1.065C1493.873,1410.973,1493.569,1410.745,1493.34,1410.821Z" transform="translate(-1395.114 -1356.344)" fill="#c45439"/><path d="M1607.762,1447.6c-.152-.913-.685-1.6-1.141-1.6-.533.076-.837.837-.761,1.75.152.913.685,1.6,1.141,1.6C1607.534,1449.272,1607.838,1448.511,1607.762,1447.6Z" transform="translate(-1502.384 -1388.86)" fill="#5f4d50"/><path d="M1595.488,1402.609l-2.967-.609a.556.556,0,0,0-.533.457l-.228,1.141a.518.518,0,0,0,.3.609l2.967.533c.228.076.456-.152.532-.456l.228-1.065C1595.869,1402.913,1595.716,1402.609,1595.488,1402.609Z" transform="translate(-1489.349 -1348.208)" fill="#c45439"/><path d="M1573.837,1472c1.217,2.587,1.75,4.337.989,5.174a2.281,2.281,0,0,1-1.826.533h0s1.978.685,2.739-.152C1576.576,1476.717,1575.663,1474.891,1573.837,1472Z" transform="translate(-1472.035 -1412.881)" fill="#f08064"/><path d="M1550.543,1569l-6.543.761a4.111,4.111,0,0,0,3.5,3.424C1550.619,1573.641,1550.543,1569,1550.543,1569Z" transform="translate(-1445.241 -1502.502)" fill="#49373f"/><path d="M1558.022,1576.826a6.518,6.518,0,0,0,.3-1.826l-5.326.533a3.152,3.152,0,0,0,.761,1.674Z" transform="translate(-1453.557 -1508.045)" fill="#feead4"/></svg>