<svg xmlns="http://www.w3.org/2000/svg" width="198.613" height="171.404" viewBox="0 0 198.613 171.404"><g transform="translate(-4475 -2035.688)"><path d="M5668.112,2563.659c-5.106-1.93-30.521-3.659-30.521-3.659-21.836,8.324-26.018,26.862-26.018,26.862l.724,2.373c-13.994,23.123,3.458,55.9,3.458,55.9l17.091-.523,43.632-68S5673.18,2565.549,5668.112,2563.659Z" transform="translate(-1086.347 -503.228)" fill="#623849"/><path d="M5767.953,2561.568c-8.525-.925-17.936-1.568-17.936-1.568-21.836,8.324-26.018,26.862-26.018,26.862l.04.081c7.279.04,15.281-6.072,23.363-10.456C5756.613,2571.541,5769.239,2568.284,5767.953,2561.568Z" transform="translate(-1198.774 -503.228)" fill="#754459"/><path d="M7165,2193.074c.925-6.313.764-15.04,3.417-17.05,2.695-2.01,15.2-1.568,17.292,2.373,2.131,3.9-3.74,15.723-3.74,15.723Z" transform="translate(-2581.827 -133.568)" fill="#83483c"/><path d="M7340.45,2966.153c9.128.12,12.224-9.852,19.181-5.63-.482-10.656,4.906-37.117-11.622-46.848-6.755-3.981-10.053,12.707-8.284,24.53C7341.093,2947.333,7340.45,2966.153,7340.45,2966.153Z" transform="translate(-2749.073 -842.104)" fill="#ef517b"/><path d="M7158.067,2818.561c-3.056.442-5.067,5.871-5.067,5.871,15.322-1.327,27.707,20.79,13.15,37.6l.844.563C7182.838,2847.193,7182.437,2815.022,7158.067,2818.561Z" transform="translate(-2570.309 -751.133)" fill="#623849"/><path d="M5416.706,4681.159l11.3-3.056a40.7,40.7,0,0,0-.845-6.313c-3.941-17.855-12.627-22.117-12.627-22.117s-17.573,11.34-49.985,6.635c-32.412-4.665-41.741,1.368-66.432-7.118-10.938-3.78-30.642-16.407-37.116-15.442l17.17,66.875h142.435a31.88,31.88,0,0,0,7.4-19.865v-.12Z" transform="translate(-754.393 -2493.534)" fill="#984a4c"/><path d="M5741,6180.906h140.3l2.091-2.574-18.377,2.01-37.72-2.091-41.7,1.689L5750.128,6176Z" transform="translate(-1215.09 -3973.817)" fill="#833c40"/><path d="M8471.377,6034l-10.334,2.252L8438,6034.4Z" transform="translate(-3803.635 -3837.528)" fill="#833c40"/><path d="M7792.706,5541.207l-4.705,2.654c13.391,2.413,54.73-3.861,54.73-3.861S7826.283,5541.931,7792.706,5541.207Z" transform="translate(-3179.774 -3363.393)" fill="#783a3d"/><path d="M6096.147,4956.22a102.6,102.6,0,0,1-14.638-1.126c-32.412-4.665-41.741,1.367-66.433-7.118A76.1,76.1,0,0,1,6008,4945c9.089,9.128,19.263,15.321,34.543,17.332,16.729,15.08,33.578,30.36,45.562,37.076h12.1Z" transform="translate(-1471.353 -2792.32)" fill="#783a3d"/><path d="M6082.841,5648.214l-18.257-2.534L6060,5638l1.327,13.833,2.936-4.3,18.579,1.328,12.063-1.005Z" transform="translate(-1521.263 -3457.452)" fill="#833c40"/><path d="M4825.712,4678.865c-5.228,13.592-11.1,18.417-20.227,17.854-10.858-.684-50.87-50.91-28.471-64.06C4801.946,4617.982,4822.656,4661.211,4825.712,4678.865Z" transform="translate(-283.435 -2489.672)" fill="#833c40"/><path d="M4978.3,4805.844c-3.78,12.024-8.364,16.287-15.764,15.8-8.807-.6-42.787-45.079-25.133-56.741C4957.113,4751.919,4975.249,4790.2,4978.3,4805.844Z" transform="translate(-439.004 -2616.932)" fill="#692e32"/><path d="M6045.921,2835.97c-4.183-5.067-24.973-7.681-37.358-4.183-12.386,3.539-32.291,58.752-28.552,80.024L6048.534,2895C6043.628,2875.178,6052.757,2844.294,6045.921,2835.97Z" transform="translate(-1444.048 -762.55)" fill="#ef517b"/><path d="M6047.167,2885.907c-1.487,10.656-10.334,18.3-17.412,18.3-12.024,0-9.49-23.283-9.49-41.58,0-8.847-9.973-13.673-6.313-19.624a41.233,41.233,0,0,0-5.389,1.086c-12.386,3.539-32.291,58.752-28.552,80.024l68.523-16.809C6046.966,2900.947,6046.846,2893.467,6047.167,2885.907Z" transform="translate(-1444.048 -774.847)" fill="#db3a6d"/><path d="M6834,2830.521c2.9,3.056,8.364,5.952,14.92,7.52,7.479,1.769,14.315,1.367,18.055-.644a9.007,9.007,0,0,0-.965-1.608C6862.391,2831.406,6846.266,2828.833,6834,2830.521Z" transform="translate(-2264.137 -762.369)" fill="#d44070"/><path d="M6346.734,2775.75c-2.654-1.649-7.278,3.137-7.278,3.137,12.908,8.927,11.179,42.264-10.456,55.213l.442,1.246C6351.278,2824.73,6366.519,2787.935,6346.734,2775.75Z" transform="translate(-1779.445 -709.971)" fill="#623849"/><path d="M7056.393,4442.951c3.579,4.665,3.739,65.989,3.739,65.989l-1.326.443L7035,4465.229l-30-29.677S7048.188,4432.254,7056.393,4442.951Z" transform="translate(-2428.261 -2302.898)" fill="#593f49"/><path d="M7051.567,4480.912c-2.011-16.729,0-30.723,4.5-31.286a2.829,2.829,0,0,1,1.931.563c-.442-3.78-.965-6.434-1.608-7.238-8.2-10.7-51.393-7.4-51.393-7.4l30,29.677,23.807,44.154,1.326-.443v-.442C7056.553,4504.518,7053.095,4493.821,7051.567,4480.912Z" transform="translate(-2428.261 -2302.898)" fill="#48333c"/><path d="M6057.84,4421.659c-3.9-2.533-27.063-11.662-33.417-11.983-19.021-1.006-35.468,5.75-33.055,21.232,0,0,17.532,9.973,37.92,9.409,0,0,35.508,38.243,56.218,45.12l.6-.523S6061.741,4424.152,6057.84,4421.659Z" transform="translate(-1455.164 -2278.429)" fill="#593f49"/><path d="M6065.441,4463.882c-11.22-17.372-15.884-34.221-10.416-37.679,1.447-.885,3.5-.765,5.872.241-1.367-2.694-2.453-4.424-3.057-4.786-3.9-2.533-27.063-11.662-33.417-11.983-19.021-1.006-35.468,5.75-33.055,21.232,0,0,17.532,9.973,37.92,9.409,0,0,32.734,35.227,53.645,44.114C6077.424,4479.888,6071.151,4472.649,6065.441,4463.882Z" transform="translate(-1455.164 -2278.429)" fill="#48333c"/><path d="M6835.1,4388H6794l22.077,12.587h41.1Z" transform="translate(-2225.746 -2257.719)" fill="#faead3"/><path d="M7053.225,4214.041c6.113-.644,11.662-1.045,13.712.764,2.091,1.81.081,11.662-3.981,9.289-4.3-2.574-4.1.644-10.455-.563C7051.777,4223.411,7051.5,4214.242,7053.225,4214.041Z" transform="translate(-2473.309 -2090.234)" fill="#fab684"/><path d="M7275,4392.673c4.906,2.694,4.866,5.75,5.872,5.912,1.045.2,2.091-.965,1.89-1.609-.2-.6-3.016-6.032-5.107-6.394C7276.367,4390.34,7275,4392.673,7275,4392.673Z" transform="translate(-2687.403 -2260.18)" fill="#fab684"/><path d="M7328,4318.367c5.147,2.092,5.469,5.107,6.475,5.188,1.045.041,1.97-1.247,1.689-1.85-.242-.563-3.66-5.63-5.791-5.75C7329.085,4315.874,7328,4318.367,7328,4318.367Z" transform="translate(-2738.271 -2188.568)" fill="#fab684"/><path d="M7340,4240.275c5.51.8,6.515,3.7,7.52,3.5,1.046-.2,1.608-1.689,1.207-2.211-.362-.523-4.906-4.625-6.957-4.222C7340.482,4237.581,7340,4240.275,7340,4240.275Z" transform="translate(-2749.789 -2113.09)" fill="#fab684"/><path d="M7412.11,3664h-44.033L7346,3705.7h44.033Z" transform="translate(-2755.548 -1562.832)" fill="#faead3"/><path d="M7466.11,3664h-44.034L7400,3705.7h44.033Z" transform="translate(-2807.377 -1562.832)" fill="#e4d6b9"/><path d="M5886.325,3832.412c-.161-1.488-5.75-2.091-12.506-1.327-6.716.8-12.064,2.614-11.9,4.1s5.75,2.051,12.507,1.287C5881.138,3835.709,5886.486,3833.86,5886.325,3832.412Z" transform="translate(-1331.14 -1722.88)" fill="#c63b68"/><path d="M5911.963,3460.682c-3.418-17.935,5.55-34.342,11.1-36.353s17.935,5.871,17.613,10.9c-.322,4.986-4.7,9.852-4.7,9.852Z" transform="translate(-1378.453 -1332.491)" fill="#f79c70"/><path d="M6015.561,3932.233c-11.26-6.434-24.57-13.391-29.958-13.271-5.348.081-14.316,1.609-15.764,9.973s-.925,13.753,9.45,16.166c10.375,2.373,37.881-4.062,37.881-4.062Z" transform="translate(-1434.157 -1807.541)" fill="#fab684"/><path d="M5960.637,3940.474c-14.035,0-20.991-7.239-20.991-13.15,0-3.177,3.216-5.992,8.364-7.962a12.491,12.491,0,0,0-2.735-.362c-5.349.081-16.125,1.287-17.573,9.651s0,15.482,10.375,17.895c10.335,2.373,38.766-5.469,38.766-5.469S5964.619,3940.474,5960.637,3940.474Z" transform="translate(-1393.831 -1807.578)" fill="#f79c70"/><path d="M5892.758,2921.476c-11.14-2.332-20.83-1.086-29.758,1.247,1.648-10.5,9.57-36.674,32.492-42.264,6.192-1.528,9.731,13.713,6.354,24.932C5899.232,2914.076,5892.758,2921.476,5892.758,2921.476Z" transform="translate(-1332.184 -810.697)" fill="#ef517b"/><path d="M5881.739,2984.852a60.521,60.521,0,0,1,4.585-9.852c-15.925,9.249-21.917,29.637-23.324,38.564a72.086,72.086,0,0,1,17.332-2.493C5877.477,3006.125,5877.839,2995.75,5881.739,2984.852Z" transform="translate(-1332.184 -901.539)" fill="#db3a6d"/><path d="M6545,3437.1c.764.121,1.568.241,2.333.4,0,0,6.474-7.4,9.088-16.085a24.84,24.84,0,0,0,.8-3.418C6554.088,3426.767,6549.464,3433.724,6545,3437.1Z" transform="translate(-1986.759 -1326.725)" fill="#db3a6d"/><path d="M8350.895,6071.49H8348s1.326-5.268,11.1-9.49C8359.1,6062,8356.646,6068.434,8350.895,6071.49Z" transform="translate(-3717.255 -3864.402)" fill="#ebd5bc"/><path d="M8282.99,6054.214H8280.5s-.726-5.67,6.313-10.214C8286.811,6044,8286.932,6050.917,8282.99,6054.214Z" transform="translate(-3652.447 -3847.125)" fill="#ebd5bc"/><path d="M6992,2826.4a71.4,71.4,0,0,0,15.04,20.429c.04-.161,5.549-8.365,7.318-16.729a24.843,24.843,0,0,0-9.53-3.66C7000.767,2825.919,6996.263,2826.281,6992,2826.4Z" transform="translate(-2415.784 -758.691)" fill="#fab684"/><path d="M7012.67,2833.748c-4.826-1.77-12.1-2.815-19.222-2.775-.482,0-.965,0-1.448.041a57.146,57.146,0,0,0,3.539,6.394,43.323,43.323,0,0,0,5.026,1.568,7.382,7.382,0,0,0,13.793-4.263Q7013.575,2834.231,7012.67,2833.748Z" transform="translate(-2415.784 -763.303)" fill="#f79c70"/><path d="M7065.841,2427a114.6,114.6,0,0,1-7.841,16.166s9.731,7.078,18.5,3.137l1.327-14.034Z" transform="translate(-2479.13 -375.576)" fill="#f08064"/><path d="M7241.6,2255.031c-2.051,4.906-1.327,17.935.08,19.624,1.407,1.729,9.088,3.3,10.778,2.051,1.729-1.247,4.584-18.257,4.3-20.428C7255.954,2249.442,7243.246,2251.05,7241.6,2255.031Z" transform="translate(-2654.122 -207.227)" fill="#fab684"/><path d="M7253.742,2258.811a22.643,22.643,0,0,1,4.424.4,12.613,12.613,0,0,0,.2-2.936c-.8-6.836-13.512-5.228-15.16-1.247a23.542,23.542,0,0,0-1.207,7.158A20.387,20.387,0,0,1,7253.742,2258.811Z" transform="translate(-2655.73 -207.227)" fill="#f79c70"/><path d="M5574.964,5767s-9.449,9.129-9.852,21.354H5559A31.884,31.884,0,0,1,5574.964,5767Z" transform="translate(-1040.409 -3581.264)" fill="#adaa54"/><path d="M5478.627,5652a44.227,44.227,0,0,0-6.8,25.978H5466C5467.609,5659.078,5478.627,5652,5478.627,5652Z" transform="translate(-951.149 -3470.889)" fill="#adaa54"/><path d="M5364.53,5596s-6.031,11.22-3.98,28.23H5355C5355.12,5603.4,5364.53,5596,5364.53,5596Z" transform="translate(-844.612 -3417.141)" fill="#adaa54"/><path d="M5183.65,5305s-3.378,15.643,2.131,39.931h-5.349C5176.25,5315.294,5183.65,5305,5183.65,5305Z" transform="translate(-675.836 -3137.844)" fill="#adaa54"/><path d="M5278,5605s-4.745,10.9-1.368,27.868h-5.348C5269.716,5612.158,5278,5605,5278,5605Z" transform="translate(-764.074 -3425.779)" fill="#adaa54"/><path d="M4475,5744s12.1,9.812,16.326,22.278h5.349A45.867,45.867,0,0,0,4475,5744Z" transform="translate(0 -3559.189)" fill="#adaa54"/><path d="M4583,5561s11.742,13.069,15.442,29.637h5.388C4597.115,5569,4583,5561,4583,5561Z" transform="translate(-103.657 -3383.549)" fill="#adaa54"/><path d="M4753,5433s10.657,15.362,12.949,34.785h5.388C4766.471,5442.409,4753,5433,4753,5433Z" transform="translate(-266.821 -3260.695)" fill="#adaa54"/><path d="M4934,5345a96.517,96.517,0,0,1,7.882,38.323h5.147C4945.179,5356.26,4934,5345,4934,5345Z" transform="translate(-440.542 -3176.234)" fill="#adaa54"/><path d="M6090.713,5369.113l19.865-1.77,16.849,6.474-13.954-8.807-8.484,1.488L6077,5363l20.991,3.981Z" transform="translate(-1537.579 -3193.511)" fill="#783a3d"/><path d="M7169,2292.713l2.855-3.056h3.378l3.5-10.656-6.917,1.206Z" transform="translate(-2585.666 -233.528)" fill="#83483c"/><path d="M7185.924,2048.408a31.526,31.526,0,0,1,20.227-2.091s.4-8.686-2.131-10.174c-1.729-1.046-13.954-.362-16.729,2.815C7185.32,2041.209,7185.924,2048.408,7185.924,2048.408Z" transform="translate(-2601.826)" fill="#f7be4f"/><path d="M7194.489,2047.2a11.264,11.264,0,0,1,2.453-7.2c-3.86.4-8.123,1.367-9.651,3.1-1.971,2.252-1.367,9.45-1.367,9.45a29.788,29.788,0,0,1,8.847-2.574A12.486,12.486,0,0,1,7194.489,2047.2Z" transform="translate(-2601.826 -4.139)" fill="#ef9f45"/><path d="M7271.332,2172.283c-7.439,1.247-12.507,2.855-17.332,5.992,8.565-1.407,17.292-.442,17.412,1.97,0,0,7.721-2.252,9.611-4.021S7275.715,2171.559,7271.332,2172.283Z" transform="translate(-2667.248 -130.993)" fill="#ef517b"/><path d="M7215.35,2430.588c-.362-1.89-1.368-3.257-2.252-3.056-.845.2-1.246,1.85-.845,3.74s1.408,3.257,2.252,3.056C7215.39,2434.127,7215.751,2432.478,7215.35,2430.588Z" transform="translate(-2627.029 -376.068)" fill="#fab684"/><path d="M7229.2,2462.708c-.241-1.206-.925-2.091-1.487-1.97s-.8,1.207-.523,2.413c.241,1.247.885,2.132,1.448,2.01S7229.437,2463.954,7229.2,2462.708Z" transform="translate(-2641.398 -407.946)" fill="#f08064"/><path d="M7241.813,2511.012c-.2-.764-.724-1.287-1.126-1.207-.442.081-.6.764-.362,1.528.2.764.724,1.327,1.126,1.207C7241.894,2512.459,7242.054,2511.776,7241.813,2511.012Z" transform="translate(-2654.015 -455.044)" fill="#fab684"/><path d="M5668,4933l9.933,6.313,9.812,3.539-10.013-1.287-2.814-.2Z" transform="translate(-1145.026 -2780.802)" fill="#833c40"/><path d="M7149,6099.333l11.059-1.246,23.444,2.453-7.439-2.694L7159.9,6097Z" transform="translate(-2566.47 -3897.994)" fill="#783a3d"/><path d="M7409.281,2463.279c.081-.724-.241-1.287-.684-1.327s-.844.523-.925,1.206c-.081.724.2,1.287.643,1.327S7409.2,2463.962,7409.281,2463.279Z" transform="translate(-2814.728 -409.121)" fill="#5f4d50"/><path d="M7375.955,2384.816l-2.815.844a.471.471,0,0,0-.322.523l.282.844a.387.387,0,0,0,.523.241l2.815-.844a.4.4,0,0,0,.322-.523l-.242-.8A.512.512,0,0,0,7375.955,2384.816Z" transform="translate(-2781.281 -335.081)" fill="#83483c"/><path d="M7559.313,2490.279c.08-.684-.2-1.287-.644-1.327s-.885.523-.966,1.207c-.08.724.242,1.327.685,1.367C7558.83,2491.525,7559.232,2491,7559.313,2490.279Z" transform="translate(-2958.727 -435.035)" fill="#5f4d50"/><path d="M7555.186,2411.429l-2.494-1.327a.457.457,0,0,0-.6.2l-.442.764a.407.407,0,0,0,.161.563l2.494,1.327a.514.514,0,0,0,.6-.2l.443-.764A.407.407,0,0,0,7555.186,2411.429Z" transform="translate(-2952.871 -359.321)" fill="#83483c"/><path d="M7457.287,2505c.724,2.372.925,3.9.241,4.464a1.593,1.593,0,0,1-1.528.121v.04s1.488.885,2.212.322C7458.976,2509.423,7458.453,2507.734,7457.287,2505Z" transform="translate(-2861.125 -450.44)" fill="#f08064"/><path d="M7411.109,2676.6l-3.981-.6s-.644,2.976,1.046,4.062C7409.823,2681.188,7411.109,2676.6,7411.109,2676.6Z" transform="translate(-2814.103 -614.563)" fill="#49373f"/><path d="M7419.677,2687.528a3.994,3.994,0,0,0,.563-.965l-3.1-.563a1.835,1.835,0,0,0,.081,1.005Z" transform="translate(-2823.797 -624.161)" fill="#feead4"/></g></svg>