<svg xmlns="http://www.w3.org/2000/svg" width="432.029" height="414.7" viewBox="0 0 432.029 414.7"><path d="M1163.648,1040.777c-9.022-1.562,15.616,36.263,22.036,60.381s33.834,61.769,66.454,72.873l13.881-43.377C1236.174,1116.08,1198.7,1046.5,1163.648,1040.777Z" transform="translate(-1056.426 -965.113)" fill="#b0cc5e"/><path d="M1232.95,1092.626c-2.6-1.041-4.685-4.511-7.114-4.685-9.2-.694,3.817,28.108,10.237,52.226s33.834,61.769,66.454,72.874l9.716-30.538C1302.354,1178.339,1244.749,1099.567,1232.95,1092.626Z" transform="translate(-1106.816 -1004.122)" fill="#8d9341"/><path d="M1524.8,1528.77c8.5-14.4,6.767-28.282-3.47-31.058s-25.506,6.767-33.834,21.168-6.767,28.282,3.47,31.058C1501.375,1552.714,1516.47,1543.171,1524.8,1528.77Z" transform="translate(-1321.28 -1342.407)" fill="#fadf61"/><path d="M1581.26,1552.891c20.821,11.278,82.59,7.287,82.59,7.287l7.634-17.177s-64.372-31.579-76.17-34.875C1583.342,1505,1562.521,1542.654,1581.26,1552.891Z" transform="translate(-1397 -1351.26)" fill="#fab684"/><path d="M1661.387,1595.112c-27.935-5.205-64.719-27.588-78.6-45.112-8.675,10.758-14.4,30.537-1.562,37.651C1599.618,1597.715,1649.936,1595.633,1661.387,1595.112Z" transform="translate(-1396.967 -1386.02)" fill="#f79c70"/><path d="M2776.981,1845H2769v199.535h4.511Z" transform="translate(-2384.859 -1629.835)" fill="#c0b094"/><path d="M2319.808,1845H2312v199.535h4.511Z" transform="translate(-2007.152 -1629.835)" fill="#c0b094"/><path d="M622.871,1105h-59.34a8.4,8.4,0,0,0-8.155,10.758l52.226,182.7h77.211l-53.788-187.389A8.382,8.382,0,0,0,622.871,1105Z" transform="translate(-555.035 -1018.231)" fill="#683a43"/><path d="M648.565,1105H610.046c-5.205,0-8.849,5.379-7.461,10.758l23.6,91.092C626.7,1165.034,635.378,1128.077,648.565,1105Z" transform="translate(-594.089 -1018.231)" fill="#8d4c5b"/><path d="M884.634,2345.378h2.95L886.022,2209H877Z" transform="translate(-821.136 -1930.678)" fill="#c0b094"/><path d="M1114.634,2345.378h3.123L1116.022,2209H1107Z" transform="translate(-1011.23 -1930.678)" fill="#c0b094"/><path d="M1195.666,2345.378h3.123L1192.023,2209H1183Z" transform="translate(-1074.043 -1930.678)" fill="#c0b094"/><path d="M1425.84,2345.378h3.123L1422.022,2209H1413Z" transform="translate(-1264.136 -1930.678)" fill="#c0b094"/><path d="M961.973,2187H860.644a3.665,3.665,0,0,0-3.644,3.644v1.908a3.785,3.785,0,0,0,3.644,3.644H961.973a3.665,3.665,0,0,0,3.644-3.644v-1.908A3.558,3.558,0,0,0,961.973,2187Z" transform="translate(-804.607 -1912.495)" fill="#683a43"/><path d="M1164.493,1837,1059,1862.853s3.3,14.228,4.858,18.912c3.817,10.931,15.1,17.524,26.72,17.524h5.205c66.28,52.052,124.405,99.42,184.266,138.633l.521-5.032C1236.326,1952.9,1194.684,1873.09,1164.493,1837Z" transform="translate(-971.558 -1623.223)" fill="#457bbb"/><path d="M1408,1848.1c3.3,7.114,35.916,60.728,66.974,63.851,7.808.868,10.237-20.127,3.817-38.519-9.369-14.575-18.045-27.067-25.853-36.437Z" transform="translate(-1260.004 -1623.223)" fill="#5e8cc8"/><path d="M1694,2064.215l44.245,67.321.867-6.593L1695.562,2063Z" transform="translate(-1496.38 -1810.01)" fill="#457bbb"/><path d="M900.429,1189.869c-7.287-1.041-7.114-9.37-8.675-16.483-1.562-7.287-22.73-26.2-27.588-77.558-5.032-55,9.543-77.558,23.944-79.467,18.045-2.429,36.437,3.3,47.888,13.881,19.953,18.392,65.586,94.909,70.1,128.049C1000.2,1172.692,928.71,1193.86,900.429,1189.869Z" transform="translate(-809.69 -944.514)" fill="#b0cc5e"/><path d="M989.887,1194.921c-23.25,9.716-45.286-38.519-66.454-85.019-13.36-29.67-62.116-34.7-45.633-60.9-10.237,9.717-17.524,32.793-13.707,74.262,4.858,51.359,26.026,70.271,27.588,77.558,1.562,7.114,1.388,15.442,8.675,16.483,28.282,3.991,99.767-17.177,105.667-31.579-.173-1.735-.521-3.47-.868-5.379C1003.768,1182.254,999.777,1190.583,989.887,1194.921Z" transform="translate(-809.618 -971.948)" fill="#8d9341"/><path d="M875.42,1075.743c-8.849-1.562-16.483,31.058-13.881,54.482,2.6,23.6,18.565,60.207,49.45,70.965l31.926-43.724C915.5,1143.237,896.588,1079.56,875.42,1075.743Z" transform="translate(-807.932 -994.006)" fill="#b0cc5e"/><path d="M884.423,1144.321C870.542,1118.469,866.9,1092.1,873.492,1077c-7.981,3.123-14.4,32.62-11.972,54.308,2.6,23.6,17.177,61.943,48.062,72.874l13.013-17.871C909.234,1179.2,895.007,1164.1,884.423,1144.321Z" transform="translate(-807.911 -995.09)" fill="#8d9341"/><path d="M1113.8,1562.77c8.328-14.4,6.767-28.282-3.47-31.058-10.41-2.776-25.506,6.767-33.834,21.168s-6.767,28.282,3.47,31.058S1105.471,1577.171,1113.8,1562.77Z" transform="translate(-981.592 -1370.508)" fill="#fadf61"/><path d="M1118.629,1587.112c21.862,9.543,92.827-2.776,92.827-2.776l-5.552-25.159s-48.582-17.524-61.6-19.433C1131.3,1538.009,1099.023,1578.783,1118.629,1587.112Z" transform="translate(-1015.745 -1377.499)" fill="#fab684"/><path d="M1626,1648.261c15.963-.694,39.56-.173,44.071,26.2h-36.61Z" transform="translate(-1440.179 -1467.103)" fill="#fab684"/><path d="M2027,1661.474c15.789-.521,39.386-.173,41.295,23.944h-36.61Z" transform="translate(-1771.602 -1478.061)" fill="#fab684"/><path d="M2097.929,1752.668a21.668,21.668,0,0,1,9.716,7.461h-16.31C2086.3,1754.4,2090.295,1749.718,2097.929,1752.668Z" transform="translate(-1822.924 -1552.772)" fill="#f79c70"/><path d="M1765.5,1734.664h5.379c-4.858-11.625-9.2-13.881-12.84-13.707-.347,0-.694.173-1.041.173C1760.123,1721.478,1763.073,1724.6,1765.5,1734.664Z" transform="translate(-1548.449 -1527.307)" fill="#f79c70"/><path d="M1702.635,1741.987h4.164c-4.511-10.237-8.155-12.492-11.1-12.146a1.043,1.043,0,0,0-.694.174C1697.429,1730.362,1700.032,1733.138,1702.635,1741.987Z" transform="translate(-1497.207 -1534.63)" fill="#f79c70"/><path d="M1140.916,1550.418a20.447,20.447,0,0,1,3.3-10.584c-13.187-1.388-45.286,39.039-25.679,47.368,18.912,8.155,74.782.174,89.357-2.082C1170.586,1584.6,1140.916,1569.33,1140.916,1550.418Z" transform="translate(-1015.649 -1377.589)" fill="#f79c70"/><path d="M2142.981,1845H2135v199.535h4.685Z" transform="translate(-1860.863 -1629.835)" fill="#c0b094"/><path d="M1685.808,1845H1678v199.535h4.511Z" transform="translate(-1483.156 -1629.835)" fill="#c0b094"/><path d="M1863.5,646H1723.131a10.77,10.77,0,0,0-10.584,8.5l-32.62,150.085a11.008,11.008,0,0,0,10.758,13.187H1830.88a10.8,10.8,0,0,0,10.584-8.5l32.62-150.085A10.893,10.893,0,0,0,1863.5,646Z" transform="translate(-1484.563 -638.872)" fill="#e4d6b9"/><path d="M1873.4,781.163l26.547-121.976A10.893,10.893,0,0,0,1889.367,646H1749a10.77,10.77,0,0,0-10.584,8.5L1711,781.163Z" transform="translate(-1510.431 -638.872)" fill="#68524f"/><path d="M1917.072,646H1776.7a10.914,10.914,0,0,0-10.584,8.5l-32.446,150.085a10.808,10.808,0,0,0,10.584,13.187h140.195a11.148,11.148,0,0,0,10.757-8.5l32.446-150.085A10.808,10.808,0,0,0,1917.072,646Z" transform="translate(-1528.94 -638.872)" fill="#dac8ac"/><path d="M2073,1779.94h46.847V1773H2073Z" transform="translate(-1809.62 -1570.328)" fill="#dac8ac"/><path d="M2201.478,1389H2170.94l-6.94,42.857h30.538Z" transform="translate(-1884.831 -1252.955)" fill="#c0b094"/><path d="M2230.569,1378H2195l10.063,74.609h35.569Z" transform="translate(-1910.453 -1243.864)" fill="#dac8ac"/><path d="M2254.569,1378H2219l10.063,74.609h35.569Z" transform="translate(-1930.288 -1243.864)" fill="#e4d6b9"/><path d="M2750,1533.981c4.338-6.767,14.922-7.981,14.922-7.981l-5.726,10.411Z" transform="translate(-2369.155 -1366.184)" fill="#805661"/><path d="M2785,1539.461c1.562-3.991,7.635-7.461,7.635-7.461l-4.511,8.849Z" transform="translate(-2398.083 -1371.143)" fill="#6b474f"/><path d="M2689,1505.534c0-8.155,7.981-13.534,7.981-13.534l.868,12.319Z" transform="translate(-2318.739 -1338.084)" fill="#805661"/><path d="M2704,1517.584c.174-6.073,4.685-10.584,4.685-10.584l.347,9.023Z" transform="translate(-2331.137 -1350.481)" fill="#6b474f"/><path d="M2677.689,1544.444c-5.726-1.735-14.575-1.215-21.689,10.063l23.424,7.981c1.909-1.215,5.379-2.256,5.552-4.685C2685.5,1552.078,2681.679,1545.659,2677.689,1544.444Z" transform="translate(-2291.465 -1380.811)" fill="#805661"/><path d="M2563.04,1585.994c-16.31-6.767-32.1,10.584-39.04,36.263h59.513S2579.349,1592.587,2563.04,1585.994Z" transform="translate(-2182.368 -1414.553)" fill="#805661"/><path d="M2555.752,1629.291c-8.5-7.287-12.493-16.657-11.1-24.291-8.849,5.9-16.483,18.392-20.647,34.181h59.513l-.174-.347C2574.665,1639.7,2564.081,1636.405,2555.752,1629.291Z" transform="translate(-2182.368 -1431.477)" fill="#6b474f"/><path d="M1530,1806.717h237.533V1797H1530Z" transform="translate(-1360.835 -1590.164)" fill="#e4d6b9"/><path d="M1520,1806.717h124.058V1797H1520Z" transform="translate(-1352.571 -1590.164)" fill="#f2e4ce"/><path d="M2813.392,1757.874c-15.095-11.1-1.041-54.482-18.392-70.791l4.511-2.082c15.269,17.524,5.206,62.463,17,69.924,5.032,3.123,13.534-5.552,15.1-9.716,1.735-4.858,4.858-5.032,6.073-3.3.868,1.214,1.041,2.6-.173,5.9C2834.734,1755.444,2822.415,1764.64,2813.392,1757.874Z" transform="translate(-2406.347 -1497.596)" fill="#805661"/><path d="M948.063,1025.959c17.177,3.644,32.62,1.735,37.478-4.164a62.939,62.939,0,0,0-35.569-5.552c-4.164.52-8.328,2.776-11.972,6.94A61.271,61.271,0,0,0,948.063,1025.959Z" transform="translate(-871.552 -944.396)" fill="#8d9341"/><path d="M1010.345,1020.452a62.9,62.9,0,0,0-32.272-4.164A15.827,15.827,0,0,0,972,1018.37c3.644,2.429,8.155,5.205,13.707,6.42C996.812,1027.219,1007.222,1024.616,1010.345,1020.452Z" transform="translate(-899.653 -944.441)" fill="#e4d6b9"/><path d="M966.6,664.444c-10.931-21.342-12.493-44.592-4.511-52.573,12.493-12.319,33.14-6.246,38.345,2.6,5.032,8.675-2.6,18.565-2.6,18.565Z" transform="translate(-887.315 -604.916)" fill="#c55857"/><path d="M1003,906.465,1004.909,882l24.985,10.757,2.6,15.442S1024.515,918.437,1003,906.465Z" transform="translate(-925.274 -833.924)" fill="#f08064"/><path d="M1009.454,684.914c-2.256-21.341-1.735-45.112,15.442-44.071,17,1.041,19.78,13.187,20.995,25.679,1.041,10.758-.694,35.916-2.429,36.61C1041.38,704,1011.363,701.918,1009.454,684.914Z" transform="translate(-929.82 -634.582)" fill="#fab684"/><path d="M995.018,668.63l8.849-3.123s.347-32.62,13.881-33.314c0,0-15.269-6.94-22.556,6.073C988.771,649.544,995.018,668.63,995.018,668.63Z" transform="translate(-916.425 -625.932)" fill="#c55857"/><path d="M983.141,811.59c-9.716-3.817-8.328-11.972-5.205-13.36,3.3-1.215,8.328,4.685,7.808,8.675C985.4,811.07,984.182,812.111,983.141,811.59Z" transform="translate(-902.639 -764.555)" fill="#fab684"/><path d="M992.075,822.36c-5.726-2.256-4.858-7.114-2.95-7.808s4.858,2.6,4.511,5.032C993.463,822.013,992.769,822.707,992.075,822.36Z" transform="translate(-912.614 -778.101)" fill="#f08064"/><path d="M1002.354,840.3c-3.47-1.388-2.95-4.338-1.735-4.685,1.041-.52,2.95,1.562,2.776,2.95C1003.222,840.122,1002.875,840.469,1002.354,840.3Z" transform="translate(-922.546 -795.516)" fill="#fab684"/><path d="M2316.053,1040.146c1.215-6.767-.867-12.146-4.685-12.146s-7.808,5.379-9.022,12.146c-1.215,6.593.867,12.146,4.511,12.146C2310.674,1052.291,2314.838,1046.739,2316.053,1040.146Z" transform="translate(-1998.886 -954.591)" fill="#e4d6b9"/><path d="M2752.571,1602.958c1.909.347,2.256-2.95,2.256-2.95s0,2.95,2.429,2.95c2.255.173,3.47-3.817-2.256-3.991C2749.795,1598.793,2747.539,1601.917,2752.571,1602.958Z" transform="translate(-2368.95 -1426.485)" fill="#9b6b79"/><path d="M2770.492,1599.075a1.8,1.8,0,0,1-1.909-2.256c.521-.694,3.123-.521,3.3,0S2771.359,1599.075,2770.492,1599.075Z" transform="translate(-2384.442 -1424.338)" fill="#513b42"/><path d="M2749.388,1579.43c.867,0,1.388.868,1.562,1.909v-.347c0-1.215-.694-2.082-1.562-2.082-.694-.174-1.388.867-1.388,1.909v.347A1.588,1.588,0,0,1,2749.388,1579.43Z" transform="translate(-2367.502 -1409.898)" fill="#513b42"/><path d="M2788.388,1582.521c.867,0,1.388.868,1.562,1.908v-.347c0-1.041-.694-2.082-1.562-2.082-.694,0-1.388.868-1.388,2.082v.173C2787.174,1583.388,2787.694,1582.521,2788.388,1582.521Z" transform="translate(-2399.736 -1412.468)" fill="#513b42"/><path d="M2328.8,2923.922h5.726l3.644-14.922s-8.329,7.461-9.369,10.237A5.925,5.925,0,0,0,2328.8,2923.922Z" transform="translate(-2020.651 -2509.222)" fill="#f5e3c0"/><path d="M2341.386,2931.36h5.726l8.328-13.36s-12.84,5.9-13.881,8.676A6.492,6.492,0,0,0,2341.386,2931.36Z" transform="translate(-2031.159 -2516.661)" fill="#f5e3c0"/><path d="M1113.817,793.3c.173-1.735-.694-3.123-1.735-3.3-1.041,0-2.082,1.388-2.082,3.123s.868,3.123,1.909,3.3C1112.95,796.42,1113.817,795.032,1113.817,793.3Z" transform="translate(-1013.709 -757.886)" fill="#5f4d50"/><path d="M1089.808,756l-6.94.694c-.521,0-.868.521-.868,1.215l.174,2.082a1.3,1.3,0,0,0,1.215.868l6.94-.694a.869.869,0,0,0,.868-1.041l-.174-2.082A1.267,1.267,0,0,0,1089.808,756Z" transform="translate(-990.567 -729.786)" fill="#c55857"/><path d="M1193.817,798.3c.173-1.735-.694-3.3-1.735-3.3-1.214,0-2.082,1.388-2.082,3.123s.868,3.123,1.909,3.123C1192.95,801.42,1193.817,800.032,1193.817,798.3Z" transform="translate(-1079.828 -762.019)" fill="#5f4d50"/><path d="M1189.981,762.347l-6.94-.347a1,1,0,0,0-1.041,1.041v2.082a1,1,0,0,0,1.041,1.041l6.767.347c.694,0,1.214-.347,1.214-1.041v-2.082A1,1,0,0,0,1189.981,762.347Z" transform="translate(-1073.216 -734.745)" fill="#c55857"/><path d="M1149.429,815c2.082,4.858,2.776,7.981,1.214,9.022a4.426,4.426,0,0,1-3.644.174v.173s3.644,1.735,5.379.694S1152.552,820.552,1149.429,815Z" transform="translate(-1044.289 -778.549)" fill="#f08064"/><path d="M1127.973,899.694,1114.787,899a6.783,6.783,0,0,0,5.032,7.461C1125.544,908.2,1127.973,899.694,1127.973,899.694Z" transform="translate(-1017.628 -847.974)" fill="#49373f"/><path d="M1131.1,906.817a13.98,13.98,0,0,0,1.562-3.3L1121.908,903a7.353,7.353,0,0,0,.521,3.3Z" transform="translate(-1023.535 -851.28)" fill="#feead4"/></svg>