<svg xmlns="http://www.w3.org/2000/svg" width="544.965" height="507.052" viewBox="0 0 544.965 507.052"><path d="M1500,1149.153c57.753,19.748,47.134-42.476,47.134-42.476l18.444-1.677C1570.607,1137.416,1546.948,1169.832,1500,1149.153Z" transform="translate(-1283.407 -980.98)" fill="#b0cc5e"/><path d="M1746.687,478.364c-9.5-36.142-77.873-49.742-152.579-29.994-74.52,19.561-127.429,64.832-117.927,100.974,9.5,36.328,77.687,49.742,152.393,30.18C1703.279,559.777,1756.188,514.506,1746.687,478.364Z" transform="translate(-1263.127 -439.296)" fill="#b0cc5e"/><path d="M2434.915,1103.552c-6.521-19.189,11.923-31.857,12.668-42.29,1.118-14.718-9.315-5.962,1.677-30.739,13.228-29.622-16.022-16.394-4.285-40.613,11.737-24.405,7.079-52.909,7.079-52.909,9.874,35.4-7.638,62.969.373,71.725s-5.961,29.808-1.3,44.526C2456.526,1069.645,2429.7,1081.009,2434.915,1103.552Z" transform="translate(-2043.015 -844.278)" fill="#dbcdd1"/><path d="M2939.827,1900h7.266l-26.827,101.347H2913Z" transform="translate(-2433.167 -1627.872)" fill="#c0b094"/><path d="M2744.013,1900h7.266l-26.827,101.347H2717Z" transform="translate(-2273.681 -1627.872)" fill="#c0b094"/><path d="M2798.529,1543h49.742a11.935,11.935,0,0,1,11.365,15.277l-16.208,55.7a15.2,15.2,0,0,1-14.718,10.992h-51.978a8.8,8.8,0,0,1-8.384-11.364l17.7-61.292A13.2,13.2,0,0,1,2798.529,1543Z" transform="translate(-2315.156 -1337.381)" fill="#644898"/><path d="M2934.452,2587.341h-3.54L2927,2456h10.246Z" transform="translate(-2444.558 -2080.29)" fill="#c0b094"/><path d="M2694.266,2587.341h-3.54L2687,2456h10.06Z" transform="translate(-2249.27 -2080.29)" fill="#c0b094"/><path d="M2601.54,2587.341H2598L2599.863,2456h10.246Z" transform="translate(-2176.851 -2080.29)" fill="#c0b094"/><path d="M2360.54,2587.341H2357L2359.049,2456h10.06Z" transform="translate(-1980.749 -2080.29)" fill="#c0b094"/><path d="M2352.726,2424h114.2a3.737,3.737,0,0,1,3.726,3.726v2.608a3.737,3.737,0,0,1-3.726,3.726h-114.2a3.737,3.737,0,0,1-3.726-3.726v-2.608A3.737,3.737,0,0,1,2352.726,2424Z" transform="translate(-1974.239 -2054.251)" fill="#644898"/><path d="M2803.174,1555H2846.4a10.771,10.771,0,0,1,10.433,13.786l-14.718,50.487a13.751,13.751,0,0,1-13.227,10.06H2783.24a8.066,8.066,0,0,1-7.638-10.246l16.208-55.7A11.793,11.793,0,0,1,2803.174,1555Z" transform="translate(-2321.105 -1347.145)" fill="#8665aa"/><path d="M2879.471,1718.874c1.49-5.4,1.863-9.874,1.118-9.874-.931,0-2.794,4.471-4.1,9.874-1.491,5.4-1.863,9.874-1.118,9.874C2876.3,1728.748,2878.167,1724.277,2879.471,1718.874Z" transform="translate(-2402.246 -1472.455)" fill="#644898"/><path d="M3069.88,1718.874c1.3-5.4,1.863-9.874.932-9.874s-2.794,4.471-4.1,9.874c-1.49,5.4-1.863,9.874-.932,9.874S3068.39,1724.277,3069.88,1718.874Z" transform="translate(-2557.072 -1472.455)" fill="#644898"/><path d="M499.266,1898H492l26.827,101.347h7.266Z" transform="translate(-463.197 -1626.245)" fill="#c0b094"/><path d="M694.266,1898H687l26.827,101.347h7.266Z" transform="translate(-621.869 -1626.245)" fill="#c0b094"/><path d="M398.986,1543H349.244a11.935,11.935,0,0,0-11.364,15.277l16.208,55.7a15.2,15.2,0,0,0,14.718,10.992h51.977a8.8,8.8,0,0,0,8.383-11.364l-17.7-61.292A13.2,13.2,0,0,0,398.986,1543Z" transform="translate(-337.394 -1337.381)" fill="#644898"/><path d="M620.794,2587.341h3.54L628.246,2456H618Z" transform="translate(-565.723 -2080.29)" fill="#c0b094"/><path d="M861.795,2587.341h3.54L869.06,2456H859Z" transform="translate(-761.825 -2080.29)" fill="#c0b094"/><path d="M945.57,2587.341h3.54L947.246,2456H937Z" transform="translate(-825.294 -2080.29)" fill="#c0b094"/><path d="M1186.57,2587.341h3.54L1188.06,2456H1178Z" transform="translate(-1021.396 -2080.29)" fill="#c0b094"/><path d="M715.927,2424h-114.2a3.737,3.737,0,0,0-3.726,3.726v2.608a3.737,3.737,0,0,0,3.726,3.726h114.2a3.737,3.737,0,0,0,3.726-3.726v-2.608A3.737,3.737,0,0,0,715.927,2424Z" transform="translate(-549.449 -2054.251)" fill="#644898"/><path d="M379.889,1554h-2.608a10.743,10.743,0,0,0-10.246,13.786l14.531,49.928a14.091,14.091,0,0,0,13.227,10.06h8.2l12.855-31.857C393.489,1589.583,383.988,1568.159,379.889,1554Z" transform="translate(-361.146 -1346.332)" fill="#8665aa"/><path d="M633.519,984.465c-58.684-.932-50.3-132.086,24.405-162.826,13.227-47.879,82.9-27.2,79.922,5.4C752.378,850.33,717.727,985.583,633.519,984.465Z" transform="translate(-546.963 -727.427)" fill="#683a43"/><path d="M1609.987,1726c4.285-1.3,13.414,3.353,12.3,4.657-1.49,1.863-6.893-3.54-9.874-1.863C1609.8,1730.289,1609.987,1726,1609.987,1726Z" transform="translate(-1372.902 -1486.106)" fill="#fab684"/><path d="M1604.7,1734c6.148.373,10.619,5.962,9.315,6.707-1.677,1.3-3.353-3.726-7.452-2.608C1602.089,1739.4,1604.7,1734,1604.7,1734Z" transform="translate(-1367.984 -1492.798)" fill="#fab684"/><path d="M1034.368,1406.363c-5.775-7.266-12.3-27.013-15.835-45.084-3.912-20.866-4.285-39.682-7.079-40.427-2.422-.745-14.345,10.805-13.6,31.112.932,22.17,8.756,50.115,16.767,63.9C1027.1,1437.1,1049.272,1425.552,1034.368,1406.363Z" transform="translate(-874.783 -1156.591)" fill="#4d7fba"/><path d="M1099.262,1786.951c-3.912-5.589-1.118-14.159,6.148-19.375,7.452-5.03,16.394-4.658,20.307.931s1.118,14.345-6.148,19.375C1112.117,1793.1,1103.175,1792.726,1099.262,1786.951Z" transform="translate(-955.885 -1517.245)" fill="#f7d9b1"/><path d="M1147.677,1745.016c19.375-.559,75.078-7.452,76.755-7.079l1.49,2.608c-33.347,15.649-70.235,23.1-83.276,23.846C1132.587,1765.136,1132.773,1745.388,1147.677,1745.016Z" transform="translate(-986.975 -1495.989)" fill="#fab684"/><path d="M715.329,1549l14.159,24.964c-12.109,11.178-30.926,65.95,2.794,95.944l-63.342,27.013C645.466,1658.358,715.329,1549,715.329,1549Z" transform="translate(-603.25 -1342.263)" fill="#5e8cc8"/><path d="M718.329,1540l14.159,24.964c-4.285,4.1-9.5,13.413-12.668,25.337-9.688,7.079-16.208,22.356-16.208,40.054,0,16.208,5.589,30.553,13.972,38.192l-45.643,19.375C648.466,1649.358,718.329,1540,718.329,1540Z" transform="translate(-605.691 -1334.94)" fill="#4d7fba"/><path d="M982.256,2195.544c-1.677-1.49-67.068-13.414-86.256-8.57l1.118,9.315,73.588,17.512S984.12,2197.035,982.256,2195.544Z" transform="translate(-791.932 -1860.447)" fill="#6b474f"/><path d="M674.734,2218.268c.745-12.3,20.679-21.238,41.172-26.268,5.962,6.707,28.131,11.737,54.586,11.737a182.746,182.746,0,0,0,32.416-2.794v38.564H695.972C683.676,2239.506,673.8,2229.819,674.734,2218.268Z" transform="translate(-611.838 -1865.473)" fill="#6b474f"/><path d="M1233,2284.977l44.153,134.694h1.863s-15.649-166.552-20.865-169.346C1249.581,2245.668,1233,2284.977,1233,2284.977Z" transform="translate(-1066.149 -1912.62)" fill="#6b474f"/><path d="M1119.394,2274.111c-7.452,33.161-16.394,134.881-16.394,134.881h1.863s51.978-137.3,49.183-165.434C1151.81,2220.643,1122,2262.56,1119.394,2274.111Z" transform="translate(-960.368 -1901.94)" fill="#6b474f"/><path d="M894.7,1273.628c12.668,38.937,17.512,87.374,14.718,89.8-2.794,2.608-54.958-.559-52.723-9.315C864.147,1327.1,891.533,1263.941,894.7,1273.628Z" transform="translate(-759.893 -1117.378)" fill="#5e8cc8"/><path d="M843.671,1368.772c5.03-18.444,22.17-57.939,33.348-77.873,4.844-8.383,2.608.186,1.3,7.638-4.844,27.2,7.825,65.2,9.129,68.185a15.432,15.432,0,0,0,10.246,9.129C889.687,1377.529,841.436,1377.156,843.671,1368.772Z" transform="translate(-749.291 -1129.433)" fill="#4d7fba"/><path d="M967.623,1392.172c-5.03-8.2-9.5-29.994-11.178-49.928-1.863-22.915,2.422-57.567-.186-58.312-2.422-.745-18.071,25.523-19.189,47.879-1.3,24.405,3.54,55.145,10.246,70.421C957.377,1425.706,980.478,1413.41,967.623,1392.172Z" transform="translate(-825.178 -1126.565)" fill="#5e8cc8"/><path d="M989.056,1875.528c-2.049-7.079,3.167-15.09,11.737-17.7,8.57-2.795,17.14.745,19.189,8.011,2.049,7.079-3.167,14.9-11.551,17.7C999.861,1886.147,991.291,1882.608,989.056,1875.528Z" transform="translate(-867.289 -1592.781)" fill="#f7d9b1"/><path d="M1042.7,1881.454c19.189,2.236,75.451,3.353,76.755,4.1l1.3,2.795c-35.211,10.619-72.1,12.854-85.325,11.737C1025.379,1899.152,1027.8,1879.591,1042.7,1881.454Z" transform="translate(-900.446 -1612.679)" fill="#fab684"/><path d="M1149.07,1766.159c-4.844-.187-7.266-3.912-6.893-8.57-9.315,4.471-8.383,18.816.373,18.257,13.041-.745,49.928-8.2,83.276-23.846C1225.825,1752,1172.544,1767.835,1149.07,1766.159Z" transform="translate(-986.877 -1507.444)" fill="#f79c70"/><path d="M1089.57,1892.57c-24.964,0-46.016-3.54-51.978-8.57-9.874,2.981-10.433,17.512-1.863,18.257,13.227,1.118,50.115-1.118,85.325-11.737h0A223.117,223.117,0,0,1,1089.57,1892.57Z" transform="translate(-900.736 -1614.853)" fill="#f79c70"/><path d="M1553.373,1725.083a7.05,7.05,0,0,0,8.2,3.726c3.912-1.118,7.638-3.54,8.942-5.4,2.049-2.981-3.167-4.657-7.825-2.049a34.838,34.838,0,0,1-9.688,3.167Z" transform="translate(-1326.533 -1481.459)" fill="#fab684"/><path d="M1616,1720.9c4.471-1.677,13.6,1.49,12.855,2.608-.932,1.677-6.707-2.236-9.315-.186C1617.118,1725,1616,1720.9,1616,1720.9Z" transform="translate(-1377.797 -1481.751)" fill="#fab684"/><path d="M1571.812,1741.938c5.03-.373,14.159,6.707,12.668,8.011-2.049,1.677-5.03-3.167-11.551-3.726C1569.576,1745.85,1571.812,1741.938,1571.812,1741.938Z" transform="translate(-1341.247 -1499.245)" fill="#fab684"/><path d="M1459.186,1882.083a7.05,7.05,0,0,0,8.2,3.726,17.744,17.744,0,0,0,9.129-5.4c1.863-2.981-3.353-4.657-8.011-2.049a34.633,34.633,0,0,1-9.5,3.167Z" transform="translate(-1250.046 -1609.21)" fill="#fab684"/><path d="M1525,1877.906c5.775-1.49,16.394,4.1,15.277,5.4-1.49,1.863-8.011-3.912-11.551-1.863C1525.373,1883.122,1525,1877.906,1525,1877.906Z" transform="translate(-1303.75 -1609.69)" fill="#fab684"/><path d="M1508.989,1889.808c4.657-1.49,15.09,3.54,13.786,5.03-1.677,2.049-7.825-3.912-11.178-2.049C1508.8,1894.465,1508.989,1889.808,1508.989,1889.808Z" transform="translate(-1290.719 -1619.357)" fill="#fab684"/><path d="M1483.99,1900.808c4.844-1.49,15.09,3.54,13.972,5.03-1.677,2.049-7.824-3.912-11.178-2.049C1483.8,1905.652,1483.99,1900.808,1483.99,1900.808Z" transform="translate(-1270.378 -1628.307)" fill="#fab684"/><path d="M2361,1948.962h19.562V1943H2361Z" transform="translate(-1984.004 -1662.861)" fill="#dccbb3"/><path d="M2364.386,1866h-26.268a1.074,1.074,0,0,0-1.118,1.118v14.531a2.865,2.865,0,0,0,2.794,2.795h22.915a2.865,2.865,0,0,0,2.795-2.795v-14.531A1.074,1.074,0,0,0,2364.386,1866Z" transform="translate(-1964.475 -1600.206)" fill="#dccbb3"/><path d="M1428.745,1940h95.944l-.745,10.06H1428Z" transform="translate(-1224.821 -1660.42)" fill="#f2e4ce"/><path d="M1785.4,1452h53.468l-35.211,99.67H1750Z" transform="translate(-1486.833 -1263.334)" fill="#f2e4ce"/><path d="M1869,2291.28h6.707V2102H1869Z" transform="translate(-1583.663 -1792.24)" fill="#c0b094"/><path d="M1869,2213.58h6.707V2129H1869Z" transform="translate(-1583.663 -1814.209)" fill="#a59176"/><path d="M1684.536,3096.482,1629.577,3084h-10.619L1564,3096.482Z" transform="translate(-1335.484 -2591.294)" fill="#c0b094"/><path d="M1814.211,1452h53.468l-35.211,99.67H1779Z" transform="translate(-1510.43 -1263.334)" fill="#dccbb3"/><path d="M1195.326,1973h229.148c6.148,0,11.737,5.4,13.041,13.041l4.844,46.575c-111.407-24.778-179.406,3.353-264.359,0l3.912-44.712C1182.658,1979.521,1188.433,1973,1195.326,1973Z" transform="translate(-1021.396 -1687.272)" fill="#f16a7f"/><path d="M2487,1873v2.795a4.475,4.475,0,1,1,0,8.942v2.794a7.363,7.363,0,0,0,7.638-7.266A7.482,7.482,0,0,0,2487,1873Z" transform="translate(-2086.53 -1605.902)" fill="#dccbb3"/><path d="M2452.03,1973.931A290.947,290.947,0,0,1,2447,2027.4c9.129,1.3,18.257,3.167,27.945,5.216l-4.844-46.575c-1.3-7.638-6.893-13.041-13.041-13.041h-5.03Z" transform="translate(-2053.982 -1687.272)" fill="#e75975"/><path d="M1196.63,1973.931V1973h-1.3c-6.893,0-12.668,6.521-13.414,14.9L1178,2032.616c8.384.373,16.581.373,24.592.186A285.379,285.379,0,0,1,1196.63,1973.931Z" transform="translate(-1021.396 -1687.272)" fill="#e75975"/><path d="M1726.913,2092.431c-43.035-19.561-32.043-40.986-70.421-38.377-33.534,2.236-24.778,28.131-88.492,41.172C1616.251,2090.569,1664.875,2083.489,1726.913,2092.431Z" transform="translate(-1338.739 -1753.05)" fill="#e75975"/><path d="M2384.679,1867h-19.561a1.246,1.246,0,0,0-1.118,1.3v9.688a2.907,2.907,0,0,0,2.795,2.981H2383a2.907,2.907,0,0,0,2.794-2.981V1868.3A1.246,1.246,0,0,0,2384.679,1867Z" transform="translate(-1986.445 -1601.02)" fill="#f2e4ce"/><path d="M2383.315,1873h-8.2a1.246,1.246,0,0,0-1.118,1.3v2.049a2.744,2.744,0,0,0,2.795,2.794h4.844a2.743,2.743,0,0,0,2.794-2.794V1874.3A1.246,1.246,0,0,0,2383.315,1873Z" transform="translate(-1994.582 -1605.902)" fill="#fff3e3"/><path d="M2441.353,1873h-2.794a.831.831,0,0,0-.559.745v3.912a1.47,1.47,0,0,0,1.49,1.49h.931a1.371,1.371,0,0,0,1.49-1.49v-3.912C2441.912,1873.373,2441.726,1873,2441.353,1873Z" transform="translate(-2046.659 -1605.902)" fill="#fff3e3"/><path d="M2036.81,1673.783c1.491-6.148.932-10.992-1.3-10.805-2.236,0-5.216,5.03-6.893,11.178-1.49,6.148-.745,10.992,1.49,10.992C2032.339,1684.961,2035.32,1679.931,2036.81,1673.783Z" transform="translate(-1712.909 -1435.002)" fill="#ebd9c5"/><path d="M1021.6,1306.717a109.869,109.869,0,0,0,1.863-13.041c-.559-2.236-1.118-4.471-1.677-6.521a14.278,14.278,0,0,0-1.3-4.657c-.931-2.981-1.677-5.775-2.608-8.756-.559-1.677-1.863-1.118-3.726,1.118h0c-.745-.372-3.353,2.795-6.148,7.825C1014.334,1300.569,1021.6,1306.717,1021.6,1306.717Z" transform="translate(-883.067 -1117.492)" fill="#f7d9b1"/><path d="M1031.383,1144.517,1023,1128.682l8.756-39.682,10.992,19.748-7.825,32.043Z" transform="translate(-895.272 -967.961)" fill="#f08064"/><path d="M1070.918,1079.136c19.748-7.266,33.906-54.958,19.748-61.851-14.718-7.079-34.465.186-37.632,17.885C1047.258,1068.89,1070.918,1079.136,1070.918,1079.136Z" transform="translate(-918.972 -907.423)" fill="#fab684"/><path d="M1043.715,969.751c8.2,16.208-30.553,12.482-46.389,47.134,0,0-14.531-23.846,5.03-43.78C1022.1,953.17,1043.715,969.751,1043.715,969.751Z" transform="translate(-870.157 -865.665)" fill="#683a43"/><path d="M1154.73,1148.03c.372-2.049,0-3.912-.932-4.1s-1.863,1.3-2.422,3.353c-.373,2.049,0,3.726.931,3.912S1154.357,1150.079,1154.73,1148.03Z" transform="translate(-999.616 -1012.646)" fill="#5f4d50"/><path d="M1245.529,1167.662c.559-2.049.186-3.726-.745-3.912-.932-.373-2.049,1.118-2.422,3.167s0,3.912.745,4.1C1244.038,1171.2,1245.156,1169.712,1245.529,1167.662Z" transform="translate(-1073.648 -1028.738)" fill="#5f4d50"/><path d="M1152.5,1110.186l-7.452-.186a1.838,1.838,0,0,0-1.863,1.677l-.186,1.677a1.522,1.522,0,0,0,1.49,1.677h7.452a1.577,1.577,0,0,0,1.863-1.49l.186-1.677A1.426,1.426,0,0,0,1152.5,1110.186Z" transform="translate(-992.916 -985.048)" fill="#d3615f"/><path d="M1251.233,1129.529l-4.657-3.167c-.559-.373-1.3,0-1.677.745l-.745,1.677a1.981,1.981,0,0,0,.373,2.236l4.657,2.981c.559.373,1.3.186,1.677-.745l.745-1.49A1.981,1.981,0,0,0,1251.233,1129.529Z" transform="translate(-1075.067 -998.243)" fill="#d3615f"/><path d="M1226.3,1168.049l-9.688-2.049-1.863,8.383a4.314,4.314,0,0,0,3.353,4.844l1.3.186a4.057,4.057,0,0,0,5.03-2.794Z" transform="translate(-1051.253 -1030.616)" fill="#ffecd5"/><path d="M1151.95,1154.422,1140.4,1152l-1.677,8.57a3.82,3.82,0,0,0,2.981,4.471l3.912.932a3.82,3.82,0,0,0,4.471-2.981Z" transform="translate(-989.384 -1019.224)" fill="#ffecd5"/><path d="M1032.118,1125l-1.118,2.049,45.271,9.688.559-2.049Z" transform="translate(-901.782 -997.254)" fill="#ffecd5"/><path d="M1233.841,1178.677l-6.893-1.677-1.3,6.148a2.685,2.685,0,0,0,2.236,3.353l1.118.373a2.944,2.944,0,0,0,3.54-2.236Z" transform="translate(-1060.097 -1039.566)" fill="#fab684"/><path d="M1158.663,1162.677l-7.825-1.677-1.118,6.148c-.373,1.49.931,2.981,2.608,3.54l1.3.186a3.3,3.3,0,0,0,3.912-2.049Z" transform="translate(-998.332 -1026.547)" fill="#fab684"/><path d="M1157.308,1165.285c.932.186,2.049-1.3,2.422-3.353v-.186l-3.167-.745-.186.373C1156,1163.422,1156.376,1165.1,1157.308,1165.285Z" transform="translate(-1003.684 -1026.547)" fill="#5f4d50"/><path d="M1248.107,1185.285c.931.186,2.049-1.3,2.608-3.353v-.186l-3.354-.745v.186C1246.989,1183.236,1247.361,1185.1,1248.107,1185.285Z" transform="translate(-1077.716 -1042.821)" fill="#5f4d50"/><path d="M1198.981,1188a9.668,9.668,0,0,1-.559.932c.932,2.981,1.863,8.011-2.422,6.707v.373C1203.266,1199.364,1199.912,1190.049,1198.981,1188Z" transform="translate(-1036.042 -1048.517)" fill="#f08064"/><path d="M1162.807,1252.353c-.186.373-.373.559-.373.932-1.677,3.54-5.4,5.216-8.57,3.726-2.794-1.118-4.1-4.658-3.167-8.011Z" transform="translate(-998.937 -1098.153)" fill="#4d3a42"/><path d="M1164.443,1254.981c-.186.373-.186.559-.373.745a5.384,5.384,0,0,1-10.06-3.726Z" transform="translate(-1001.691 -1100.594)" fill="#f4e4cf"/><path d="M1029.315,1097.874c-.745-5.4-4.1-9.874-7.266-9.874s-5.03,4.471-4.1,9.874c.745,5.589,3.912,9.874,7.079,9.874S1030.246,1103.463,1029.315,1097.874Z" transform="translate(-890.968 -967.147)" fill="#fab684"/><path d="M1035.768,1114.148c-.373-3.354-2.422-6.148-4.471-6.148-1.863,0-2.981,2.794-2.608,6.148.559,3.353,2.608,6.148,4.471,6.148C1035.209,1120.3,1036.327,1117.5,1035.768,1114.148Z" transform="translate(-899.843 -983.421)" fill="#f08064"/><path d="M1044.482,1140.285c-.373-2.236-1.677-4.285-2.981-4.285s-2.236,2.049-1.863,4.285c.373,2.422,1.677,4.285,2.981,4.285C1044.11,1144.57,1044.855,1142.707,1044.482,1140.285Z" transform="translate(-908.743 -1006.205)" fill="#fab684"/><path d="M1761.271,755.466c.559.559.745.932.745,1.3.186.559-.559,1.118-1.3,1.677-1.118.745-4.471,4.285-5.4,5.03l-.559.373c-.745,0-1.118-.745-1.49-1.118-.745-.559-2.235-2.236-4.658-1.863s-4.285,2.981-3.353,12.855c1.118,9.688,4.285,12.3,6.148,11.923,1.677-.186,2.608-.931,3.167-3.353a2.1,2.1,0,0,1,1.49-2.049c.745,0,1.3.186,1.863.186,1.118.186,6.334.373,8.383.559.745,0,1.118.559,1.118,1.49v.932a11.46,11.46,0,0,1-.186,2.422c-.932,3.912-3.726,12.109-14.531,13.786-7.452,1.118-19.748-2.794-21.8-23.474s8.942-25.337,15.276-26.268C1756.241,748.387,1759.594,753.789,1761.271,755.466Z" transform="translate(-1471.09 -691.807)" fill="#fefefe"/><path d="M1974.038,742.405c0-.186-.186-.373-.373-.559-.559-.745-3.167-5.216-4.1-7.079-1.118-2.049-1.863-3.726-2.049-4.1-.559-.931-.745-1.3-1.118-1.3a11.369,11.369,0,0,0-.559,2.794c-.186,1.118-.932,4.844-1.3,6.334a28.505,28.505,0,0,1-1.118,4.657v1.118c0,.186.186.373.745.373.745-.186,7.079-1.3,8.2-1.677S1974.038,742.778,1974.038,742.405Zm-9.688-23.66c.186-.745.559-.932.932-.559.559.186.745.931,1.118,1.677.373.932,3.353,5.775,4.471,7.638a56.791,56.791,0,0,1,3.912,6.893c1.118,2.422,5.4,8.942,7.266,11.923,1.677,2.981,5.962,8.942,7.079,10.619a56.172,56.172,0,0,0,3.912,5.589,1.7,1.7,0,0,1,.559.932c0,.373-.559.559-1.3.745l-5.03.745c-.559,0-.931-1.118-1.677-2.049-.559-.931-2.981-5.589-3.353-6.521a39.445,39.445,0,0,0-2.236-3.726c-.373-1.118-.745-1.118-1.3-1.118s-1.677.373-2.795.559c-1.118.373-5.589.932-7.638,1.49a6.947,6.947,0,0,1-2.236.373,25.129,25.129,0,0,1-3.726.559c-.559,0-.559.931-.745,1.677,0,.745-.745,5.03-.745,6.521l-.559,2.981-.373,2.049c-.186,1.118-.186,1.3-.745,1.49l-4.1.559c-.373,0-.373,0-.373-.186-.186-.186,0-.559.186-.932.186-.745.186-.932.559-2.794s1.863-8.57,2.049-11.551a81.318,81.318,0,0,1,1.677-9.129c.373-2.422.745-3.54,1.3-6.893s1.118-6.707,1.677-9.315l1.3-5.589C1963.792,721.167,1964.164,719.49,1964.351,718.745Z" transform="translate(-1653.304 -666.078)" fill="#fefefe"/><path d="M2183.142,711.249c.187,1.49.373,3.167.559,4.285.186,2.422.186,4.285.373,6.707l.931,8.011c.186,1.118-.373,1.677-1.49,1.863h-1.677a21.379,21.379,0,0,0-2.608.373c-2.05.373-4.285.745-5.03.932-1.3,0-1.118-.373-1.3-1.3l-.373-3.54a59.415,59.415,0,0,1-.745-6.334c-.373-2.794,0-4.285-.373-7.079-.186-2.981-.559-4.844-.745-7.825-.373-2.981-.559-5.962-.745-9.315-.373-3.167-.745-6.52-1.118-9.315-.186-1.677.186-2.049,1.118-2.236a6.991,6.991,0,0,0,1.863-.186c1.676-.186,8.383-1.49,9.874-1.677,1.49-.373,6.52-1.49,8.011-1.677l5.775-.932c1.118,0,1.677.186,1.863.932l.186,3.353c.187.931-.186.931-1.118.931-.931.186-3.726.559-6.148.932-1.118.186-3.353.559-5.216.931l-3.353.745-.187,1.3a10.61,10.61,0,0,0,.187,2.422c.186,1.49.186,3.54.559,5.962,0,1.3.186,2.608.186,3.54l.186,1.677c.745-.186,1.49-.186,2.236-.373a25.121,25.121,0,0,1,3.353-.559c1.677-.373,3.912-.745,5.589-1.118,1.49-.186,1.863.186,2.049.932v2.236c.186.745-.186.932-1.49,1.118-1.118.186-3.354.373-4.844.745l-6.707.931C2182.955,709.572,2182.955,710.5,2183.142,711.249Z" transform="translate(-1827.57 -636.784)" fill="#fefefe"/><path d="M2349,662.911v-.186c0-1.118.373-1.3.931-1.3a9.837,9.837,0,0,1,2.422-.186c2.608-.372,6.707-1.3,8.756-1.677l7.638-1.118c1.863-.373,4.844-.559,6.334-.745,1.118-.186,1.3,0,1.49.559v1.118l.932,8.011.186,3.353.187.559c0,.745,0,.931-1.118,1.118-.932.186-5.775.559-7.08.745l-7.452,1.118c-1.118.186-2.049.373-2.981.559l-1.491.373a2.361,2.361,0,0,0,.187,1.118l.186,2.422v2.794l1.49-.372c.931,0,2.049-.373,2.794-.373l5.03-.745c2.981-.559,5.03-1.118,6.521-1.3,1.3-.186,1.49.186,1.49.559a3.815,3.815,0,0,1,0,2.049c0,.745-.373.745-.932.932a16.531,16.531,0,0,0-2.794.373c-1.118,0-5.216.559-6.707.745l-3.726.559c-.745.186-1.677.373-2.608.559l.559,6.521c.373,3.54.559,7.079.559,8.011s.187,2.236.187,3.54c.186,1.863.559,3.353.559,4.1.186.931-.559,1.118-1.49,1.118l-4.844.745c-1.118.186-.931-.745-1.118-2.236a20.379,20.379,0,0,1-.559-3.167c-.186-1.863-.373-4.1-.559-5.589-.186-2.794-.745-10.06-.745-11.551-.186-1.49-.559-3.167-.931-5.962s-.187-4.1-.373-6.148l-.559-5.962C2349.186,666.637,2349.186,664.215,2349,662.911Z" transform="translate(-1974.239 -616.951)" fill="#fefefe"/><path d="M2525.892,653.184c-.559-5.216-.932-5.589-1.3-9.687s-.559-8.2-.745-10.06c-.186-1.3.373-1.677,1.118-1.677a2.364,2.364,0,0,1,1.118-.186c1.118-.186,2.422-.186,5.589-.559,2.981-.559,7.638-1.863,10.433-2.236,2.794-.559,6.521-.745,7.825-.932s1.49.373,1.677,1.677.559,2.981.745,5.03a6.088,6.088,0,0,1,0,2.608.837.837,0,0,1-.745,1.118,5.064,5.064,0,0,1-1.677,0,36.652,36.652,0,0,0-6.148.745c-1.677.186-3.54.373-5.4.559-.559.186-1.118.186-1.863.373a16.363,16.363,0,0,1-3.726.745,27.2,27.2,0,0,0-3.726.559c-.745,0-.559.373-.559,1.49.186,1.118.186,4.1.559,6.521l.373,3.912c0,.745.186,1.49.186,2.236.559,0,1.3-.186,2.05-.186,1.118-.186,2.794-.373,4.844-.745,2.608-.373,5.775-1.118,7.452-1.3a14.106,14.106,0,0,1,3.54-.373c.745-.186.931.186.931.559v2.236c.186,1.3.373,1.863.559,3.54,0,.931-.186,1.118-.559,1.3a3.044,3.044,0,0,0-1.3,0,49.172,49.172,0,0,0-7.08.932c-4.471.559-7.452,1.677-8.2,1.677a2.493,2.493,0,0,1-.932.186h-.559l.745,6.707a1.12,1.12,0,0,0,.745-.186,9.612,9.612,0,0,0,2.049-.373c1.491-.186,5.03-.745,8.2-1.3,2.422-.373,6.148-.745,8.942-1.118a11.426,11.426,0,0,1,2.981-.559c1.118-.186,1.49.373,1.49,1.118a4.625,4.625,0,0,0,.187,1.49c0,1.3.186,2.794.372,4.657s-.931,1.677-3.353,2.049c-2.236.373-8.942,1.3-12.3,1.677-3.353.559-10.247,1.863-11.178,2.049l-.373.186c-.559,0-.559-.559-.745-1.118,0-.745-.187-1.677-.187-2.422a29.237,29.237,0,0,1-.559-2.981l-.932-9.315C2526.078,659.7,2526.45,658.4,2525.892,653.184Z" transform="translate(-2116.479 -592.692)" fill="#fefefe"/></svg>