<svg xmlns="http://www.w3.org/2000/svg" width="753.885" height="411.412" viewBox="0 0 753.885 411.412"><path d="M1665.286,1347.04c3.72,2.576,7.154.859,10.3-2,4.006-3.72,6.582-8.585,6.868-11.733.572-4.292-3.434-2.289-10.3-1.717-4.006.286-7.154,6.868-7.154,6.868Z" transform="translate(-1326.706 -1259.282)" fill="#fab684"/><path d="M1699,1328.236c5.723-4.865,21.176-5.151,20.89-3.148-.572,3.148-11.447.572-14.308,4.865C1703.006,1333.959,1699,1328.236,1699,1328.236Z" transform="translate(-1350.976 -1254.5)" fill="#fab684"/><path d="M1693,1344.1c4.292-4.865,19.173-5.437,18.6-2.862-.572,3.434-11.161.286-13.736,4.579C1695.575,1349.533,1693,1344.1,1693,1344.1Z" transform="translate(-1346.693 -1265.781)" fill="#fab684"/><path d="M1195.726,1625.075c-72.972-60.667-224.641-13.164-293.034-15.453-68.68-2.289-348.551-115.325-409.5,20.6-30.62,67.821,11.733,119.618,61.526,154.244,50.365,34.912,110.746,52.369,171.986,52.369h305.053C1261.258,1833.69,1268.7,1685.456,1195.726,1625.075Z" transform="translate(-482.84 -1425.426)" fill="#f05b7c"/><path d="M862.342,1772.536c-140.794-17.456-241.811-77.837-224.068-130.778,5.151-15.453,45.787-7.154,66.677-25.183,2-1.717-44.642-49.221-43.783-51.51-73.831-5.437-141.652,6.582-167.98,65.532-30.62,67.821,11.733,119.618,61.526,154.244,50.365,34.912,110.746,52.369,171.986,52.369h305.053c130.492-1.717,189.156-50.365,202.034-103.306C1195.154,1782.838,966.221,1785.414,862.342,1772.536Z" transform="translate(-482.84 -1425.798)" fill="#eb486d"/><path d="M935.514,1133.034c-7.154-30.906-56.947-41.494-56.947-41.494-17.17-17.17-47.5-10.3-94.149,3.148-46.359,13.45-77.551,41.494-68.966,92.432,8.585,51.224,60.095,87.281,137.074,64.387l26.041-6.01C926.357,1237.484,942.668,1164.226,935.514,1133.034Z" transform="translate(-647.871 -1081.333)" fill="#49353a"/><path d="M1310.8,1608.027c15.453,33.481,86.136,52.655,127.917,27.472l-7.154-17.742s-31.764,6.582-57.52,1.717C1356.583,1616.326,1304.787,1595.436,1310.8,1608.027Z" transform="translate(-1073.519 -1454.451)" fill="#fab684"/><path d="M1695.62,1455.583c-3.72,8.871-18.029,10.3-22.321-1.431-4.006-12.019-7.727-57.806-8.3-96.152l3.72.572C1672.727,1376.029,1701.629,1440.416,1695.62,1455.583Z" transform="translate(-1326.706 -1278.827)" fill="#fab684"/><path d="M1454.534,1725c22.035,42.639,96.438,29.475,96.438,29.475l-15.739,40.063s-91-8.3-107.026-25.183C1412.468,1752.186,1454.534,1725,1454.534,1725Z" transform="translate(-1155.158 -1540.804)" fill="#f79c70"/><path d="M1664.664,1868.063,1680.4,1828a162.582,162.582,0,0,1-30.047,1.717,131.718,131.718,0,0,0-16.884,8.3A127.942,127.942,0,0,0,1606,1859.764C1634.617,1865.488,1664.664,1868.063,1664.664,1868.063Z" transform="translate(-1284.589 -1614.329)" fill="#7a5ca5"/><path d="M1259.379,1668.475c-68.966-34.34-83.274-51.224-84.419-61.812-.859-10.588,33.2-19.173,43.783-15.167s76.406,30.047,80.413,38.632C1302.59,1637.283,1265.961,1671.909,1259.379,1668.475Z" transform="translate(-976.887 -1444.788)" fill="#fab684"/><path d="M1448,1711l16.884,16.6,6.01-5.437Z" transform="translate(-1171.804 -1530.81)" fill="#f79c70"/><path d="M1218.744,1591.5c-10.588-4.006-44.642,4.579-43.783,15.167.286.859.286,1.717.572,2.576a113.433,113.433,0,0,0,17.456,1.431c20.6,0,38.06-5.151,44.356-11.733C1228.473,1595.217,1221.605,1592.641,1218.744,1591.5Z" transform="translate(-976.887 -1444.788)" fill="#f79c70"/><path d="M1299.2,1630.491c-4.006-8.585-69.825-34.626-80.413-38.633a14.426,14.426,0,0,0-5.437-.858c22.321,10.016,64.96,28.617,67.249,33.2s-25.469,18.887-30.62,18.6c-11.161-.572-70.111-52.368-74.117-38.919a5.77,5.77,0,0,0-.858,3.148c1.145,10.588,15.453,27.472,84.419,61.812C1266,1672.271,1302.63,1637.645,1299.2,1630.491Z" transform="translate(-976.927 -1445.15)" fill="#8665aa"/><path d="M1265.142,1686.793c-61.526-28.331-75.548-47.79-89.284-49.793a4.835,4.835,0,0,0-.858,2.862c1.145,10.588,15.453,27.472,84.419,61.812,6.01,3.148,36.343-24.9,39.777-35.485C1289.467,1678.208,1270.293,1689.082,1265.142,1686.793Z" transform="translate(-976.927 -1477.987)" fill="#7a5ca5"/><path d="M1744.855,1796.56c-6.3-12.305,6.009-31.765,24.9-38.346,72.114-25.469,173.7-31.192,183.432-28.617,12.305,3.434,29.761,40.349,29.761,40.349C1879.067,1792.554,1814.393,1845.781,1744.855,1796.56Z" transform="translate(-1382.522 -1543.684)" fill="#f79c70"/><path d="M1176,1634.654c-.286,36.916,62.384,81.557,116.756,74.117l-7.44-22.893s-18.887,6.868-52.941-15.167C1216.347,1660.7,1176,1620.632,1176,1634.654Z" transform="translate(-977.638 -1474.21)" fill="#fab684"/><path d="M1546.769,1758.516c-9.157-1.145-13.736-14.594-3.434-21.749,10.016-7.154,52.941-22.893,89.57-33.768l.286,3.434C1617.738,1715.019,1562.794,1760.52,1546.769,1758.516Z" transform="translate(-1235.66 -1525.1)" fill="#fab684"/><path d="M1076.115,1736.349c89.57,43.211,245.245,84.705,400.061,29.189,0,0-82.416,146.8-272.43,114.753-117.328-19.745-157.391-56.375-176.565-94.435C1011.728,1754.664,1044.637,1720.9,1076.115,1736.349Z" transform="translate(-868.599 -1546.144)" fill="#f05b7c"/><path d="M2144.322,2064.35c-47.79-44.356-87.281-87.567-113.322-129.061l22.893-2.289,144.228,115.325Z" transform="translate(-1587.969 -1689.281)" fill="#eb486d"/><path d="M2381.41,2041.2,2303,1916.145l22.607-1.145L2439.5,2026.033Z" transform="translate(-1782.131 -1676.433)" fill="#eb486d"/><path d="M2338.746,1771.251c13.45,25.755,125.627,137.36,125.627,137.36l3.434-1.145s-68.966-166.549-87.853-175.134C2367.362,1726.323,2321.862,1738.628,2338.746,1771.251Z" transform="translate(-1805 -1544.989)" fill="#fab684"/><path d="M2335.883,1761.434l-1.717-3.434c-10.588,6.582-17.742,17.456-9.729,32.909,13.45,25.755,129.919,137.074,129.919,137.074l1.431-.572C2432.893,1897.363,2347.329,1783.755,2335.883,1761.434Z" transform="translate(-1794.983 -1564.361)" fill="#f79c70"/><path d="M2045.786,1836.766c26.9,26.9,184,137.932,184,137.932l3.72-.572s-116.183-167.98-128.489-173.7C2092.718,1794.986,2020.6,1811.584,2045.786,1836.766Z" transform="translate(-1594.742 -1593.906)" fill="#fab684"/><path d="M2063.739,1817.437c-1.145-1.145-3.148-4.579-4.006-5.437-18.887,6.3-35.2,21.176-21.462,34.912,26.9,26.9,186.294,136.787,186.294,136.787l3.148-.286C2195.948,1951.077,2086.632,1840.33,2063.739,1817.437Z" transform="translate(-1589.516 -1602.908)" fill="#f79c70"/><path d="M1171.038,1385.308,1147,1371s2.575,41.208,16.312,70.111c16.884,9.157,29.475,1.717,24.61-7.154C1177.906,1415.356,1171.038,1385.308,1171.038,1385.308Z" transform="translate(-956.94 -1288.107)" fill="#f79c70"/><path d="M1192.582,1215.361c-14.022-17.742-47.218-9.443-50.651,8.013-6.01,30.048,11.733,60.953,15.739,64.96,16.884,16.884,38.346,21.463,38.346,21.463S1229.211,1261.148,1192.582,1215.361Z" transform="translate(-952.442 -1169.956)" fill="#fab684"/><path d="M2144.42,1260l-147.948,22.321L1969,1415.961l147.662-22.035Z" transform="translate(-1543.711 -1208.871)" fill="#dac8ac"/><path d="M2166.42,1258l-147.948,22.035L1991,1413.961l147.948-22.035Z" transform="translate(-1559.415 -1207.444)" fill="#f2e4ce"/><path d="M1793.4,1761.456,1725,1776.623l-2-4.292,78.123-28.33Z" transform="translate(-1368.108 -1554.367)" fill="#dac8ac"/><path d="M1113.611,1139.333c31.765,20.6-38.919,50.365-38.06,113.036,0,0-42.353-46.359-25.469-88.139C1066.966,1122.735,1096.727,1128.458,1113.611,1139.333Z" transform="translate(-884.919 -1117.107)" fill="#49353a"/><path d="M1738.057,1302,1702,1306.006l11.16,56.661,23.18-2.575Z" transform="translate(-1353.117 -1238.852)" fill="#edd881"/><path d="M1731.777,1296,1692,1300.579l.572,7.44,42.066-3.72Z" transform="translate(-1345.979 -1234.569)" fill="#f2e4ce"/><path d="M1632.575,1169l-2.575,2.289,31.478,41.78,2.862-2.289Z" transform="translate(-1301.721 -1143.913)" fill="#f2e4ce"/><path d="M1579.183,1173.434l-.572-3.434-24.61,4.292.572,3.434Z" transform="translate(-1247.47 -1144.626)" fill="#f2e4ce"/><path d="M2766.706,2305a278.108,278.108,0,0,0,36.343,23.179s-25.183,2-36.629-8.3C2762.127,2315.874,2766.706,2305,2766.706,2305Z" transform="translate(-2111.625 -1954.828)" fill="#fab684"/><path d="M2679.914,2374a250.438,250.438,0,0,0,37.774,19.459s-23.466,4.579-35.771-4.579C2677.053,2385.16,2679.914,2374,2679.914,2374Z" transform="translate(-2050.589 -2004.082)" fill="#fab684"/><path d="M2296.014,1479.029c2-10.016-.858-18.029-6.582-18.029s-12.019,8.013-14.022,18.029.859,18.028,6.582,18.028C2287.429,1497.057,2293.725,1489.044,2296.014,1479.029Z" transform="translate(-1761.982 -1352.352)" fill="#dac8ac"/><path d="M1122.5,1376.954c-3.148-4.865-8.585-7.726-12.019-6.582-3.434,1.431-3.434,6.582-.286,11.447,3.434,4.865,8.871,8.013,12.305,6.582C1125.65,1386.97,1125.936,1381.819,1122.5,1376.954Z" transform="translate(-929.008 -1287.48)" fill="#fab684"/><path d="M1129.406,1391.167c-2-2.862-5.151-4.579-7.154-3.72s-2,3.72,0,6.582c1.717,3.148,5.151,4.865,7.154,4.006S1131.41,1394.315,1129.406,1391.167Z" transform="translate(-938.202 -1299.689)" fill="#f08064"/><path d="M1139.377,1403.753c-1.431-2-3.72-3.148-5.151-2.862-1.431.572-1.431,2.862-.286,4.865,1.431,2,3.72,3.434,5.151,2.862S1140.522,1405.756,1139.377,1403.753Z" transform="translate(-947.028 -1309.413)" fill="#fab684"/><path d="M2835.586,1796.284c-2-24.9-14.881-48.648-34.34-64.96C2783.79,1717.016,2760.9,1709.862,2736,1707a124.852,124.852,0,0,0,21.176,46.645C2780.642,1786.554,2813.837,1804.01,2835.586,1796.284Z" transform="translate(-2091.221 -1527.955)" fill="#f17193"/><path d="M1399.483,1828.661c-83.847-5.151-158.536-29.475-210.9-54.944-1.431-.572-2.862-1.145-4.579-1.717,12.305,22.607,48.934,46.645,95.866,60.381C1331.662,1847.548,1379.738,1845.259,1399.483,1828.661Z" transform="translate(-983.352 -1574.354)" fill="#f17193"/><path d="M552.8,1743.108c0-23.752,7.44-46.931,20.89-68.108-19.173,9.157-34.626,23.179-44.07,44.356-26.614,59.236,10.3,104.165,54.085,134.5a250.935,250.935,0,0,0,88.712,38.919C599.156,1856.429,552.8,1802.916,552.8,1743.108Z" transform="translate(-509.826 -1505.112)" fill="#f05b7c"/><path d="M1247.013,1370.8c-.572-2.862-2-5.151-3.434-4.865-1.145,0-2,2.575-1.717,5.723.572,2.862,2,5.151,3.434,4.865C1246.44,1376.528,1247.3,1373.952,1247.013,1370.8Z" transform="translate(-1024.616 -1284.478)" fill="#5f4d50"/><path d="M1336.686,1358.091c-.286-3.148-1.717-5.437-3.148-5.151s-2,2.862-1.717,5.723c.572,3.148,2,5.151,3.148,5.151C1336.4,1363.528,1337.259,1360.952,1336.686,1358.091Z" transform="translate(-1088.821 -1275.198)" fill="#5f4d50"/><path d="M1232.858,1326.818l-10.588,3.72a2.119,2.119,0,0,0-1.717,2.862l.572,2.575c.286,1.145,1.431,1.717,2.862,1.431l10.874-3.72a2.538,2.538,0,0,0,1.717-2.862l-.572-2.576C1235.72,1327.1,1234.289,1326.532,1232.858,1326.818Z" transform="translate(-1009.316 -1256.516)" fill="#49353a"/><path d="M1330.588,1322.865l-8.3-2a1.61,1.61,0,0,0-2,1.717l-.286,2.575c0,1.431.572,2.576,1.717,2.862l8.013,1.717a1.61,1.61,0,0,0,2-1.717l.286-2.576C1332.305,1324.3,1331.447,1322.865,1330.588,1322.865Z" transform="translate(-1080.433 -1252.277)" fill="#49353a"/><path d="M1304.572,1390a12.036,12.036,0,0,0-.572,1.431c3.148,3.72,7.154,10.016,0,10.588l.286.286C1316.591,1403.45,1306.862,1392,1304.572,1390Z" transform="translate(-1069.012 -1301.67)" fill="#f08064"/><path d="M1289.173,1459v1.717c-.572,5.723-5.151,10.3-10.3,10.016-4.865-.286-8.585-4.579-8.871-9.73Z" transform="translate(-1044.741 -1350.924)" fill="#4d3a42"/><path d="M1290.6,1463v1.145c-.286,4.579-4.579,7.726-9.157,7.44a8,8,0,0,1-7.44-7.44Z" transform="translate(-1047.597 -1353.78)" fill="#f4e4cf"/><path d="M1833.286,1697.351a9.143,9.143,0,0,0,11.161,3.434c4.865-2,9.157-5.723,10.588-8.3,2-4.006-4.865-5.437-10.3-1.431a44.145,44.145,0,0,1-11.733,5.723Z" transform="translate(-1446.63 -1514.872)" fill="#fab684"/><path d="M1885,1689.239c7.154-2.575,21.749,2.575,20.318,4.579-1.431,2.575-10.588-3.72-14.881-.572C1886.431,1695.821,1885,1689.239,1885,1689.239Z" transform="translate(-1483.749 -1514.773)" fill="#fab684"/><path d="M1873,1700.806c6.01-2.862,19.745,2,18.6,4.006-2,2.862-10.588-3.72-14.594-.572C1873.572,1706.815,1873,1700.806,1873,1700.806Z" transform="translate(-1475.183 -1522.906)" fill="#fab684"/><path d="M1860,1709.994c6.01-2,19.459,4.006,18.028,6.01-2.289,2.862-10.3-4.579-14.594-2C1860,1716.29,1860,1709.994,1860,1709.994Z" transform="translate(-1465.903 -1529.805)" fill="#fab684"/><path d="M1679,1329.868c3.434-5.723,18.028-6.01,18.315-2.862.286,4.292-11.447,0-12.591,5.151C1683.579,1336.736,1679,1329.868,1679,1329.868Z" transform="translate(-1336.699 -1255.274)" fill="#fab684"/></svg>