<svg xmlns="http://www.w3.org/2000/svg" width="632.45" height="443.153" viewBox="0 0 632.45 443.153">
  <g id="Group_1" data-name="Group 1" transform="translate(-683.072 -144.423)">
    <g id="Layer_x0020_1" transform="translate(250.072 -185.577)">
      <g id="_2043570441984" transform="translate(433 330)">
        <path id="Path_1" data-name="Path 1" d="M1997.043,1610h71.6l-49.892,155.857H1947Z" transform="translate(-1718.791 -1417.062)" fill="#f7be4f"/>
        <path id="Path_2" data-name="Path 2" d="M2346.015,2737.509H2343l.6-94.509h8.441Z" transform="translate(-2055.101 -2294.356)" fill="#c0b094"/>
        <path id="Path_3" data-name="Path 3" d="M2098.864,2737.509H2096l.6-94.509h8.441Z" transform="translate(-1845.332 -2294.356)" fill="#c0b094"/>
        <path id="Path_4" data-name="Path 4" d="M1986.864,2737.509H1984l5.426-94.509h8.29Z" transform="translate(-1750.214 -2294.356)" fill="#c0b094"/>
        <path id="Path_5" data-name="Path 5" d="M1739.864,2737.509H1737l5.276-94.509h8.441Z" transform="translate(-1540.445 -2294.356)" fill="#c0b094"/>
        <path id="Path_6" data-name="Path 6" d="M1756.768,2614h93.6a3.8,3.8,0,0,1,3.768,3.618,3.732,3.732,0,0,1-3.768,3.768h-93.6a3.829,3.829,0,0,1-3.768-3.768A3.7,3.7,0,0,1,1756.768,2614Z" transform="translate(-1554.033 -2269.727)" fill="#f7be4f"/>
        <path id="Path_7" data-name="Path 7" d="M1081,2133.427h31.955V2128H1081Z" transform="translate(-983.325 -1856.983)" fill="#dac8ac"/>
        <path id="Path_8" data-name="Path 8" d="M1419.984,1721c-18.992,22.911-45.521,21.705-52.606,34.668-3.165,5.577-3.316,28.036,11.908,32.407s59.992-1.658,59.992-1.658C1438.222,1757.779,1434.454,1732.606,1419.984,1721Z" transform="translate(-1225.087 -1511.331)" fill="#7658a3"/>
        <path id="Path_9" data-name="Path 9" d="M2003,1404.592l43.863,41c28.79,13.717,72.5-6.632,72.5-6.632L2116.2,1396C2085.752,1413.937,2043.245,1393.287,2003,1404.592Z" transform="translate(-1766.35 -1235.319)" fill="#8565aa"/>
        <path id="Path_10" data-name="Path 10" d="M2241.08,1621.893a138.492,138.492,0,0,1-37.08-4.673l13.717,14.772c28.941,13.566,75.216-8.14,75.216-8.14L2290.52,1613C2277.859,1618.426,2260.374,1621.893,2241.08,1621.893Z" transform="translate(-1937.053 -1419.61)" fill="#7658a3"/>
        <path id="Path_11" data-name="Path 11" d="M2575.881,1455.078c10.853-1.658,20.2-14.47,21.4-27.132,1.055-11.3-4.823-19.294-13.265-18.992-8.893.3-18.842,9.647-22.157,22.158C2558.094,1445.28,2564.425,1456.887,2575.881,1455.078Z" transform="translate(-2240.049 -1246.313)" fill="#7658a3"/>
        <path id="Path_12" data-name="Path 12" d="M1321.219,1230.229c5.728,29.393,53.962,73.708,53.962,73.708l59.69-53.359c-33.613-7.687-60.745-3.467-74.311-32.257C1356.491,1209.578,1318.506,1216.663,1321.219,1230.229Z" transform="translate(-1187.218 -1081.154)" fill="#8565aa"/>
        <path id="Path_13" data-name="Path 13" d="M1418.784,1246.555c-7.537-7.084-19.444-3.467-26.378,7.989s-6.482,26.529,1.206,33.613,19.445,3.467,26.378-7.989S1426.471,1253.639,1418.784,1246.555Z" transform="translate(-1243.633 -1105.319)" fill="#7658a3"/>
        <path id="Path_14" data-name="Path 14" d="M1375.75,1327.241c-25.775-17.334-49.44-53.812-49.44-70.241-3.618,2.563-5.879,5.728-5.125,9.345,5.728,29.393,52.3,75.215,52.3,75.215S1383.136,1332.366,1375.75,1327.241Z" transform="translate(-1187.183 -1117.271)" fill="#7658a3"/>
        <path id="Path_15" data-name="Path 15" d="M1357.363,1227.933c-5.879-8.592-20.349-8.743-32.106-.6-11.757,8.29-16.43,21.856-10.551,30.448,6.029,8.441,20.349,8.742,32.106.452S1363.392,1236.374,1357.363,1227.933Z" transform="translate(-1179.649 -1086.998)" fill="#f2e4ce"/>
        <path id="Path_16" data-name="Path 16" d="M1381.994,1927.369c7.989-8.893,6.481-23.514-3.618-32.558s-24.871-9.345-32.86-.452c-8.14,8.893-6.632,23.514,3.467,32.558S1373.854,1936.262,1381.994,1927.369Z" transform="translate(-1203.526 -1653.036)" fill="#f2e4ce"/>
        <path id="Path_17" data-name="Path 17" d="M1279.476,885c-2.713,21.4-8.592,65.87,4.823,78.381s44.617-8.14,41-18.992c-5.125-16.128-23.364-57.58-23.364-57.58Z" transform="translate(-1148.791 -801.344)" fill="#fab684"/>
        <path id="Path_18" data-name="Path 18" d="M1286.258,912.885a88.765,88.765,0,0,1-3.768-27.735l-3.015-.151c-2.713,21.4-8.592,65.87,4.823,78.381,9.948,9.195,29.393.452,37.532-9.195C1309.17,955.392,1293.644,937.756,1286.258,912.885Z" transform="translate(-1148.791 -801.344)" fill="#f79c70"/>
        <path id="Path_19" data-name="Path 19" d="M2360.57,1698.655c33.462,10.4,56.374,41.451,36.779,66.473-9.044,11.456-45.371-4.823-45.371-4.823S2340.674,1692.324,2360.57,1698.655Z" transform="translate(-2060.01 -1492.001)" fill="#7658a3"/>
        <path id="Path_20" data-name="Path 20" d="M2486.66,1892.037c10.1-7.386,12.511-23.062,5.577-34.819-7.085-11.757-20.8-15.224-30.9-7.687s-12.511,23.062-5.577,34.819C2462.844,1896.106,2476.561,1899.573,2486.66,1892.037Z" transform="translate(-2147.511 -1617.101)" fill="#f2e4ce"/>
        <path id="Path_21" data-name="Path 21" d="M2636.853,1443.826c11.305-1.658,17.033-15.073,13.717-28.489-2.864-11.908-12.36-20.5-21.555-20.349-9.8.3-17.334,9.948-16.43,23.062C2613.49,1433.124,2624.794,1445.484,2636.853,1443.826Z" transform="translate(-2283.988 -1234.459)" fill="#f2e4ce"/>
        <path id="Path_22" data-name="Path 22" d="M1643,1472.21c28.488,43.562,25.926,74.462,21.4,86.52-4.522,12.209,79.285,41,79.285,41s39.492-7.838,26.981-96.318c-12.511-88.631-68.885-77.778-68.885-77.778Z" transform="translate(-1460.614 -1260.129)" fill="#8565aa"/>
        <path id="Path_23" data-name="Path 23" d="M1740.946,1734.688c-1.809-12.812-3.618-23.665-6.783-32.709-6.331-17.033,0,19.746.6,29.393,1.809,28.94-7.687,56.525-26.981,61.5-25.775,6.783-65.116-45.069-80.34-79.285-9.948-22.308-19.444-12.812-19.444-12.812,28.488,43.712,29.091,76.421,24.569,88.631-4.522,12.059,81.4,41.6,81.4,41.6S1753.457,1823.168,1740.946,1734.688Z" transform="translate(-1430.889 -1491.406)" fill="#7658a3"/>
        <path id="Path_24" data-name="Path 24" d="M2352.279,1670c17.786,9.5,35.121,26.378,9.345,26.83C2336,1697.283,2352.279,1670,2352.279,1670Z" transform="translate(-2058.652 -1468.019)" fill="#8565aa"/>
        <path id="Path_25" data-name="Path 25" d="M1439.975,2244.692c-59.841-4.522-101.594,1.357-138.975,17.636l44.165,41.15,81.4-.3a45.189,45.189,0,0,0,36.025-17.937,22.932,22.932,0,0,0-5.879-33.01C1450.527,2248.309,1444.347,2244.993,1439.975,2244.692Z" transform="translate(-1170.164 -1954.833)" fill="#463c41"/>
        <path id="Path_26" data-name="Path 26" d="M1595.4,2261.47c25.323,0,47.33-3.618,58.786-8.893l-.452-.3c-6.18-3.919-12.36-7.235-16.731-7.537-41.9-3.165-75.065-1.206-104.005,5.878C1542.647,2256.948,1566.915,2261.47,1595.4,2261.47Z" transform="translate(-1367.194 -1954.88)" fill="#574b50"/>
        <path id="Path_27" data-name="Path 27" d="M1896.076,2413.713c-4.823-9.948-37.683-11.757-42.054,3.768-9.044,32.257,2.412,82.6,18.389,116.818h2.11C1877.838,2522.693,1908.285,2439.036,1896.076,2413.713Z" transform="translate(-1637.118 -2093.105)" fill="#463c41"/>
        <path id="Path_28" data-name="Path 28" d="M1329.448,2396.684s-45.069-33.01-47.179-26.077c-8.592,29.091,19.6,98.428,58.484,132.8h2.864C1341.959,2499.333,1329.448,2396.684,1329.448,2396.684Z" transform="translate(-1152.94 -2062.209)" fill="#463c41"/>
        <path id="Path_29" data-name="Path 29" d="M1401.388,1952.776c-10.7-9.345-14.47-29.091-.151-34.518,14.32-5.276,48.234,15.978,48.234,15.978l-5.728,18.54Z" transform="translate(-1247.339 -1678.142)" fill="#fab684"/>
        <path id="Path_30" data-name="Path 30" d="M1430.211,1955.654c-20.047-6.482-33.312-20.2-29.845-30.9,0-.3.151-.452.3-.754-14.018,5.577-10.25,25.022.452,34.367h41A58.742,58.742,0,0,1,1430.211,1955.654Z" transform="translate(-1247.072 -1683.733)" fill="#f79c70"/>
        <path id="Path_31" data-name="Path 31" d="M1707,2011.187c13.566-.6,31.352-.3,29.393,21.4h-28.941Z" transform="translate(-1514.967 -1757.655)" fill="#fab684"/>
        <path id="Path_32" data-name="Path 32" d="M1736.165,2090.3h2.864c-3.165-9.044-4.823-11.154-5.879-11.3H1733C1733.9,2079.452,1734.959,2081.713,1736.165,2090.3Z" transform="translate(-1537.048 -1815.369)" fill="#f79c70"/>
        <path id="Path_33" data-name="Path 33" d="M1790.165,2090.3h2.864c-3.166-9.044-4.673-11.154-5.728-11.3h-.3C1788.055,2079.452,1788.959,2081.713,1790.165,2090.3Z" transform="translate(-1582.908 -1815.369)" fill="#f79c70"/>
        <path id="Path_34" data-name="Path 34" d="M1844.165,2090.3h2.864c-3.165-9.044-4.673-11.154-5.728-11.3h-.3C1842.055,2079.452,1842.959,2081.713,1844.165,2090.3Z" transform="translate(-1628.769 -1815.369)" fill="#f79c70"/>
        <path id="Path_35" data-name="Path 35" d="M762.081,1167h103.7a11.217,11.217,0,0,1,11.154,10.551l4.673,106.568a11.14,11.14,0,0,1-11.154,11.606h-103.7a11.137,11.137,0,0,1-11.154-10.7l-4.673-106.417A11.05,11.05,0,0,1,762.081,1167Z" transform="translate(-702.994 -1040.837)" fill="#e4d6b9"/>
        <path id="Path_36" data-name="Path 36" d="M880.707,1265.127l-3.768-87.576A11.217,11.217,0,0,0,865.785,1167h-103.7a11.05,11.05,0,0,0-11.154,11.606l3.768,86.52Z" transform="translate(-702.994 -1040.837)" fill="#68524f"/>
        <path id="Path_37" data-name="Path 37" d="M714.083,1167h103.7a11.114,11.114,0,0,1,11.154,10.551l4.673,106.568a11.018,11.018,0,0,1-11,11.606H718.756a11,11,0,0,1-11-10.7l-4.823-106.417A11.14,11.14,0,0,1,714.083,1167Z" transform="translate(-662.231 -1040.837)" fill="#dac8ac"/>
        <path id="Path_38" data-name="Path 38" d="M1059,1808h23.364l4.823,32.106h-23.213Z" transform="translate(-964.641 -1585.218)" fill="#c0b094"/>
        <path id="Path_39" data-name="Path 39" d="M1003.537,1798h26.68l-7.687,55.922H996Z" transform="translate(-911.138 -1576.725)" fill="#dac8ac"/>
        <path id="Path_40" data-name="Path 40" d="M983.537,1798h26.68l-7.537,55.922H976Z" transform="translate(-894.152 -1576.725)" fill="#e4d6b9"/>
        <path id="Path_41" data-name="Path 41" d="M2239.331,2193H2233v162.339h3.618Z" transform="translate(-1961.682 -1912.185)" fill="#c0b094"/>
        <path id="Path_42" data-name="Path 42" d="M1850.331,2193H1844v162.339h3.617Z" transform="translate(-1631.317 -1912.185)" fill="#c0b094"/>
        <path id="Path_43" data-name="Path 43" d="M985.481,2193H979v162.339h3.768Z" transform="translate(-896.7 -1912.185)" fill="#c0b094"/>
        <path id="Path_44" data-name="Path 44" d="M570.481,2193H564v162.339h3.768Z" transform="translate(-544.254 -1912.185)" fill="#c0b094"/>
        <path id="Path_45" data-name="Path 45" d="M433,2155.989H690.451V2148H433Z" transform="translate(-433 -1873.969)" fill="#e4d6b9"/>
        <path id="Path_46" data-name="Path 46" d="M1841,2155.989h91.645V2148H1841Z" transform="translate(-1628.769 -1873.969)" fill="#f2e4ce"/>
        <path id="Path_47" data-name="Path 47" d="M1951,1910.1c-18.691,1.357-41.451-5.427-37.985-12.812,3.467-7.235,23.816-12.812,34.668-5.728S1964.26,1909.2,1951,1910.1Z" transform="translate(-1689.626 -1653.402)" fill="#f2e4ce"/>
        <path id="Path_48" data-name="Path 48" d="M2172.07,1832c22.459.452,62.554.151,72.2,12.661,9.5,12.662,3.467,37.532-17.485,35.573-13.264-1.206-58.786-26.981-58.786-26.981Z" transform="translate(-1906.479 -1605.6)" fill="#fab684"/>
        <path id="Path_49" data-name="Path 49" d="M2261.407,1918c-4.824,9.044-26.077,14.772-51.249,13.264a120.159,120.159,0,0,1-22.158-3.316c10.4,5.728,44.617,24.268,55.771,25.323C2264.572,1955.231,2270.752,1930.511,2261.407,1918Z" transform="translate(-1923.465 -1678.637)" fill="#f79c70"/>
        <path id="Path_50" data-name="Path 50" d="M2712.6,1235.264c-8.742,18.239-26.529,56.073-42.356,56.826-15.676.9-23.967-33.764-16.128-39.793,11.606-9.044,41.451-30.3,41.451-30.3Z" transform="translate(-2316.777 -1087.547)" fill="#fab684"/>
        <path id="Path_51" data-name="Path 51" d="M2697.521,1319.8c-17.183,18.389-36.929,27.735-44.164,21.1a6.319,6.319,0,0,1-1.357-2.11c.754,12.209,8.14,28.639,18.992,28.036,15.827-.754,33.614-38.588,42.356-56.826C2713.348,1310,2701.742,1315.276,2697.521,1319.8Z" transform="translate(-2317.525 -1162.282)" fill="#f79c70"/>
        <path id="Path_52" data-name="Path 52" d="M1837.3,1405.522a43.34,43.34,0,0,0-14.922-.452l-2.562,2.11c-12.963-2.412-24.72-3.467-34.819-6.18,3.919,10.4,20.047,18.389,39.341,18.389,16.279,0,30.3-5.577,36.628-13.717A176.981,176.981,0,0,0,1837.3,1405.522Z" transform="translate(-1581.21 -1239.566)" fill="#7658a3"/>
        <path id="Path_53" data-name="Path 53" d="M1971.488,1426.066a43.338,43.338,0,0,0-14.922-.452l-2.562,2.11c-3.768-.754-7.537-1.357-11-1.809,1.959,19.6,15.375,36.477,15.375,36.477s15.978-20.8,23.966-36.628C1978.724,1425.765,1975.106,1425.765,1971.488,1426.066Z" transform="translate(-1715.394 -1260.11)" fill="#f2e4ce"/>
        <path id="Path_54" data-name="Path 54" d="M1956.566,1425.614l-2.562,2.11c-3.768-.754-7.537-1.357-11-1.809a60.759,60.759,0,0,0,2.864,12.812,68.094,68.094,0,0,0,12.662,1.206,66.238,66.238,0,0,0,16.882-2.261c2.563-4.07,4.974-8.14,6.934-11.908-3.617,0-7.235,0-10.853.3A43.338,43.338,0,0,0,1956.566,1425.614Z" transform="translate(-1715.394 -1260.11)" fill="#dac8ac"/>
        <path id="Path_55" data-name="Path 55" d="M1954.839,1190c7.235,22.61,18.992,36.025,18.992,36.025s-10.7,15.375-23.816,12.059-10.853-30.9-10.853-30.9Z" transform="translate(-1712.009 -1060.37)" fill="#f08064"/>
        <path id="Path_56" data-name="Path 56" d="M1848.086,1147.308c-7.235-15.224-15.827-39.492-7.687-46.727,7.989-7.235,17.334-9.5,24.419,1.357,6.934,10.7,9.345,36.929,8.592,41C1872.505,1147.157,1851.553,1154.543,1848.086,1147.308Z" transform="translate(-1625.455 -979.241)" fill="#fab684"/>
        <path id="Path_57" data-name="Path 57" d="M1600.5,3238.577H1580s11.908-5.577,15.375-5.577C1598.691,3233,1600.5,3238.577,1600.5,3238.577Z" transform="translate(-1407.11 -2795.424)" fill="#ebd5bc"/>
        <path id="Path_58" data-name="Path 58" d="M1965,3236.878h11.757s-4.673-5.878-6.632-5.878S1965,3236.878,1965,3236.878Z" transform="translate(-1734.078 -2793.725)" fill="#ebd5bc"/>
        <path id="Path_59" data-name="Path 59" d="M1063.445,1486.5c-.452-5.125-3.316-9.5-6.481-9.5-3.316,0-5.426,4.371-5.125,9.5.452,5.276,3.316,9.647,6.632,9.647C1061.637,1496.143,1063.9,1491.772,1063.445,1486.5Z" transform="translate(-958.536 -1304.11)" fill="#e4d6b9"/>
        <path id="Path_60" data-name="Path 60" d="M1819.149,1034.758s6.331-7.687-20.2-6.481c-12.963.6-21.705,9.044-22.007,14.621-.3,5.878,6.331,9.5,10.4,4.974,7.838-8.742,21.4-5.728,21.4-5.728-5.577,4.371,5.276,26.529,5.276,26.529l6.331-2.261,6.783,8.592C1826.535,1060.081,1825.781,1046.063,1819.149,1034.758Z" transform="translate(-1574.36 -922.915)" fill="#80473e"/>
        <path id="Path_61" data-name="Path 61" d="M2036.235,1221.537c0-4.22-1.658-7.537-3.617-7.537s-3.618,3.316-3.618,7.537,1.658,7.687,3.618,7.687S2036.235,1225.757,2036.235,1221.537Z" transform="translate(-1788.431 -1080.753)" fill="#fab684"/>
        <path id="Path_62" data-name="Path 62" d="M2042.823,1238.823c0-2.713-1.055-4.823-2.412-4.823s-2.412,2.11-2.412,4.823c0,2.563,1.055,4.673,2.412,4.673S2042.823,1241.386,2042.823,1238.823Z" transform="translate(-1796.074 -1097.738)" fill="#f08064"/>
        <path id="Path_63" data-name="Path 63" d="M2045.618,1274.015c0-1.658-.754-3.015-1.809-3.015s-1.809,1.356-1.809,3.015.754,3.015,1.809,3.015S2045.618,1275.673,2045.618,1274.015Z" transform="translate(-1799.472 -1129.161)" fill="#fab684"/>
        <path id="Path_64" data-name="Path 64" d="M2925.781,1069.448c1.206-8.742,2.864-12.511,4.824-15.073s1.356-11.757,3.617-14.772c.6-1.206,4.824-.6,4.07,1.809-1.206,2.864-1.959,9.5,2.11,13.415C2945.527,1060.1,2924.726,1076.382,2925.781,1069.448Z" transform="translate(-2550.005 -932.131)" fill="#fab684"/>
        <path id="Path_65" data-name="Path 65" d="M3000.328,1036.031c3.919-6.029,7.989-14.923,8.893-18.992.6-2.562,3.919-1.357,3.919,1.357,0,2.563-2.864,16.882-9.647,19.9C2996.711,1041.156,2998.821,1038.594,3000.328,1036.031Z" transform="translate(-2612.042 -912.28)" fill="#fab684"/>
        <path id="Path_66" data-name="Path 66" d="M3041.606,1063.928c3.919-6.029,8.139-14.923,9.044-18.842.6-2.562,3.919-1.357,3.768,1.507,0,2.412-3.014,16.882-9.8,19.6C3037.838,1069.053,3039.948,1066.49,3041.606,1063.928Z" transform="translate(-2646.988 -936.107)" fill="#fab684"/>
        <path id="Path_67" data-name="Path 67" d="M3056.529,1130.45c4.522-5.577,9.8-13.867,11.154-17.636,1.055-2.562,4.22-.9,3.768,1.809-.452,2.412-5.125,16.43-12.209,18.389S3054.57,1132.712,3056.529,1130.45Z" transform="translate(-2659.35 -993.736)" fill="#fab684"/>
        <path id="Path_68" data-name="Path 68" d="M2961.882,1139.366c6.783-5.426,11.757-12.963,10.1-18.992s-7.989-17.786-15.525-7.235c-7.386,10.7-11.456,15.073-11.456,15.073Z" transform="translate(-2566.36 -991.498)" fill="#fab684"/>
        <path id="Path_69" data-name="Path 69" d="M2928.728,749,2923,764.073c14.621,12.059,33.01,14.169,33.01,14.169l2.713-14.32S2941.992,761.059,2928.728,749Z" transform="translate(-2547.676 -685.843)" fill="#c4c55c"/>
        <path id="Path_70" data-name="Path 70" d="M3017.677,836.613c2.261.452,4.372-1.357,4.974-4.07.452-2.713-.9-5.276-3.165-5.728-2.261-.3-4.522,1.507-4.974,4.221S3015.417,836.312,3017.677,836.613Z" transform="translate(-2625.321 -751.901)" fill="#dddc6c"/>
        <path id="Path_71" data-name="Path 71" d="M2900.106,1029.7l-7.687-10.7c-14.621,4.673-24.419,16.128-24.419,16.128l8.592,8.29A53.312,53.312,0,0,1,2900.106,1029.7Z" transform="translate(-2500.967 -915.145)" fill="#b7b555"/>
        <path id="Path_72" data-name="Path 72" d="M2945.808,1071.761c-1.206,1.357-.9,3.618.6,5.125,1.658,1.658,4.07,1.809,5.276.452s1.055-3.618-.6-5.276C2949.425,1070.555,2947.014,1070.4,2945.808,1071.761Z" transform="translate(-2566.414 -959.163)" fill="#c4c55c"/>
        <path id="Path_73" data-name="Path 73" d="M2912.738,968.738l-3.467-15.676c-18.691-2.11-35.271,6.18-35.271,6.18l5.427,13.415S2895.1,966.025,2912.738,968.738Z" transform="translate(-2506.062 -858.854)" fill="#c4c55c"/>
        <path id="Path_74" data-name="Path 74" d="M2977.141,978.75c-2.11.9-2.864,3.768-1.809,6.18,1.055,2.562,3.617,3.919,5.728,3.015s2.864-3.618,1.809-6.18A4.7,4.7,0,0,0,2977.141,978.75Z" transform="translate(-2591.718 -880.774)" fill="#dddc6c"/>
        <path id="Path_75" data-name="Path 75" d="M1969.51,1839.388c-10.1-4.974-18.389-2.562-22.761-3.768-4.371-1.055-16.43-8.139-15.224-12.36s24.419-13.867,40.245-6.481C1987.447,1824.164,1977.348,1843.156,1969.51,1839.388Z" transform="translate(-1705.577 -1590.378)" fill="#fab684"/>
        <path id="Path_76" data-name="Path 76" d="M2011.709,1918.551c-4.371,4.522-7.838,12.812-4.22,19.143.9,1.507,6.18,1.658,6.029-.151,0-1.809-1.055-10.551,4.823-14.922C2024.37,1918.249,2014.271,1915.838,2011.709,1918.551Z" transform="translate(-1768.879 -1678.133)" fill="#fab684"/>
        <path id="Path_77" data-name="Path 77" d="M1941.485,1884.833c-5.426,3.467-11,11-9.647,18.992.3,1.959,5.125,3.768,5.577,1.809.452-1.809,2.11-11.456,8.893-14.018C1953.091,1888.9,1944.65,1882.873,1941.485,1884.833Z" transform="translate(-1705.739 -1650.142)" fill="#fab684"/>
        <path id="Path_78" data-name="Path 78" d="M1882.583,1845c-6.331,2.563-14.32,9.647-15.676,18.691-.3,2.11,3.618,5.276,4.673,3.316,1.206-1.959,6.029-12.209,13.415-13.566S1886.351,1843.5,1882.583,1845Z" transform="translate(-1650.757 -1616.494)" fill="#fab684"/>
        <path id="Path_79" data-name="Path 79" d="M1305.071,746.247c-3.768-13.867-11.606-26.68-17.334-27.735-5.577-1.055-12.812,7.537-5.426,25.474C1289.7,762.074,1305.071,746.247,1305.071,746.247Z" transform="translate(-1151.625 -659.877)" fill="#fab684"/>
        <path id="Path_80" data-name="Path 80" d="M1202.271,435,1167,458.966c20.65,31.352,51.1,46.878,51.1,46.878l35.724-27.283S1217.8,461.981,1202.271,435Z" transform="translate(-1056.362 -419.173)" fill="#e4d6b9"/>
        <path id="Path_81" data-name="Path 81" d="M1470.2,330l-42.2,4.823c3.467,37.231,23.213,65.267,23.213,65.267l44.466-7.537S1471.411,361.2,1470.2,330Z" transform="translate(-1278.021 -330)" fill="#f0e2cc"/>
        <path id="Path_82" data-name="Path 82" d="M1280.057,730.842c-2.11-10.25-.3-16.731,4.221-18.691,4.522-2.11,14.319,1.357,16.882,1.206,2.713,0,.3,7.989-4.07,6.481a22.728,22.728,0,0,0-7.537-1.357l-.6,1.809s8.893,6.331,5.426,13.415C1290.759,740.64,1281.413,737.776,1280.057,730.842Z" transform="translate(-1151.633 -653.969)" fill="#fab684"/>
        <path id="Path_83" data-name="Path 83" d="M1519.2,422l-31.2,4.974v2.261l31.5-4.673Z" transform="translate(-1328.977 -408.133)" fill="#e4d6b9"/>
        <path id="Path_84" data-name="Path 84" d="M1535.187,468,1507,471.768l.151,2.261,28.338-3.467Z" transform="translate(-1345.113 -447.199)" fill="#e4d6b9"/>
        <path id="Path_85" data-name="Path 85" d="M1551.349,520,1531,523.919l.151,2.261,20.5-3.618Z" transform="translate(-1365.496 -491.361)" fill="#e4d6b9"/>
        <path id="Path_86" data-name="Path 86" d="M1944.8,1254.251c-.452-1.658-.151-3.165.6-3.316s1.809,1.206,2.261,2.864c.452,1.809.151,3.316-.6,3.467S1945.255,1256.06,1944.8,1254.251Z" transform="translate(-1716.745 -1112.111)" fill="#5f4d50"/>
        <path id="Path_87" data-name="Path 87" d="M1922.055,1206.833l6.632.9a1.008,1.008,0,0,1,1.055.9l-.151,1.959a.762.762,0,0,1-1.055.754l-6.481-.754a1.27,1.27,0,0,1-1.055-1.055v-1.959A.885.885,0,0,1,1922.055,1206.833Z" transform="translate(-1696.71 -1074.641)" fill="#80473e"/>
        <path id="Path_88" data-name="Path 88" d="M1863.8,1264.251c-.452-1.658-.151-3.165.6-3.316s1.809,1.206,2.261,2.864c.452,1.809.151,3.316-.6,3.467S1864.255,1266.06,1863.8,1264.251Z" transform="translate(-1647.954 -1120.603)" fill="#5f4d50"/>
        <path id="Path_89" data-name="Path 89" d="M1837.968,1221.679l4.22-2.562a.648.648,0,0,1,1.055.3l.6,1.658a.789.789,0,0,1-.3,1.206l-4.221,2.713c-.452.151-.754,0-1.055-.452l-.6-1.658A1.172,1.172,0,0,1,1837.968,1221.679Z" transform="translate(-1625.888 -1084.964)" fill="#80473e"/>
        <path id="Path_90" data-name="Path 90" d="M1907.873,1270c-.151,5.879.151,9.8,1.658,11.154a2.277,2.277,0,0,0,2.713.151h.151s-2.261,2.412-3.919,1.055C1906.969,1281.154,1907.119,1276.934,1907.873,1270Z" transform="translate(-1685.09 -1128.312)" fill="#f4826d"/>
        <path id="Path_91" data-name="Path 91" d="M1941.632,1338.07a2.927,2.927,0,0,0,.452-4.07h0c1.507.452,2.563,2.412.754,4.522-1.809,1.959-6.029,3.165-7.537,2.713h-.3A12.409,12.409,0,0,0,1941.632,1338.07Z" transform="translate(-1708.6 -1182.665)" fill="#f4826d"/>
        <path id="Path_92" data-name="Path 92" d="M1969.905,1388.968c0-.3-.754-.452-1.658-.3-.754.151-1.507.6-1.357.9,0,.452.754.6,1.658.3C1969.453,1389.722,1970.056,1389.27,1969.905,1388.968Z" transform="translate(-1735.667 -1229.041)" fill="#f4826d"/>
      </g>
    </g>
    <g id="Layer_x0020_1-2" data-name="Layer_x0020_1" transform="translate(-3851.522 -2095.638)">
      <path id="Path_176" data-name="Path 176" d="M6306,5038.407h2.106V4992H6306Z" transform="translate(-1336.348 -2374.947)" fill="#efd2bb"/>
      <path id="Path_177" data-name="Path 177" d="M4964,3757.617h171.684V3590H4964Z" transform="translate(-91.81 -1074.766)" fill="#e4d6b9"/>
      <path id="Path_178" data-name="Path 178" d="M7316,3757.617h30.357V3590H7316Z" transform="translate(-2272.998 -1074.766)" fill="#c0b094"/>
      <path id="Path_179" data-name="Path 179" d="M4865,3521.262h177.421V3514H4865Z" transform="translate(0 -1004.286)" fill="#f2e4ce"/>
      <path id="Path_180" data-name="Path 180" d="M7258,3521.262h45.245V3514H7258Z" transform="translate(-2219.21 -1004.286)" fill="#e4d6b9"/>
      <path id="Path_181" data-name="Path 181" d="M5015.017,3853.115h157.595v-149.1H5015.017Zm158.539,1.017H5014V3703h159.556Z" transform="translate(-138.179 -1179.56)" fill="#c0b094"/>
      <path id="Path_182" data-name="Path 182" d="M5028,4079.9h157.6V4077H5028Z" transform="translate(-151.162 -1526.398)" fill="#c0b094"/>
      <path id="Path_183" data-name="Path 183" d="M5028,4575.832h157.6V4573H5028Z" transform="translate(-151.162 -1986.376)" fill="#c0b094"/>
      <path id="Path_184" data-name="Path 184" d="M5028,5070.905h157.6V5068H5028Z" transform="translate(-151.162 -2445.427)" fill="#c0b094"/>
      <path id="Path_185" data-name="Path 185" d="M5028,5565.9h157.6V5563H5028Z" transform="translate(-151.162 -2904.478)" fill="#c0b094"/>
      <path id="Path_186" data-name="Path 186" d="M5640.809,2956.1c-23.458-5.52-43.5-20.553-60.787-16.776-9.586,2.106-15.4,7.48-18.81,14.888-3.2,6.9-4.212,15.614-4.212,25.128h89.836Z" transform="translate(-641.744 -470.787)" fill="#a99588"/>
      <path id="Path_187" data-name="Path 187" d="M5640.809,3026.981c-23.458-4.793-43.5-17.866-60.787-14.6-9.586,1.888-15.4,6.536-18.81,12.927-3.2,6.028-4.212,13.581-4.212,21.86h89.836Z" transform="translate(-641.744 -538.618)" fill="#9e887a"/>
      <path id="Path_188" data-name="Path 188" d="M5610.8,3093.664c0-3.777-4.14-6.536-8.5-6.028l-5.374.509c-1.453-12.709-10.312-26.145-19.9-26.145-10.53,0-19.027,11.039-19.027,24.62a31.236,31.236,0,0,0,.8,7.045h52Z" transform="translate(-642.671 -585.112)" fill="#a99588"/>
      <path id="Path_189" data-name="Path 189" d="M5584.932,3312.681c-27.017,2.106-33.988-27.742-27.161-45.681l2.105.581c-1.888,4.357-4.647,26.871,7.7,32.536,12.347,5.737,21.715.073,24.475,5.374C5594.591,3310.429,5588.926,3312.39,5584.932,3312.681Z" transform="translate(-640.19 -775.224)" fill="#a99588"/>
      <path id="Path_190" data-name="Path 190" d="M6585.5,3150.027c-10.676-6.681-7.844-25.636-7.844-25.636s13.436-.8,20.7,4.14c7.262,4.866,8.279,20.48,8.279,20.48S6592.832,3154.6,6585.5,3150.027Z" transform="translate(-1587.957 -642.927)" fill="#a99588"/>
      <path id="Path_191" data-name="Path 191" d="M6678.7,2976a21.366,21.366,0,0,0-7.7,12.927l10.458.654C6682.111,2984.933,6678.7,2976,6678.7,2976Z" transform="translate(-1674.84 -505.357)" fill="#a99588"/>
      <path id="Path_192" data-name="Path 192" d="M6703.156,3013a14.222,14.222,0,0,0-5.156,8.57l6.9.436C6705.335,3018.955,6703.156,3013,6703.156,3013Z" transform="translate(-1699.88 -539.67)" fill="#68605a"/>
      <path id="Path_193" data-name="Path 193" d="M6904.072,3209.844a21.289,21.289,0,0,1-8.86,11.983L6891,3211.8C6894.922,3209.554,6904.072,3209.844,6904.072,3209.844Z" transform="translate(-1878.863 -722.207)" fill="#a99588"/>
      <path id="Path_194" data-name="Path 194" d="M6933.5,3232.944a14.187,14.187,0,0,1-5.737,7.771l-2.76-6.536C6927.542,3232.8,6933.5,3232.944,6933.5,3232.944Z" transform="translate(-1910.394 -743.637)" fill="#68605a"/>
      <path id="Path_195" data-name="Path 195" d="M6702.209,3318.635c1.671,1.888,4.213-1.38,4.213-1.38s-1.889,3.123.29,4.938c2.179,1.743,6.1-1.307.654-5.81C6702.572,3312.462,6698.07,3313.987,6702.209,3318.635Z" transform="translate(-1702.273 -818.943)" fill="#d5c4bc"/>
      <path id="Path_196" data-name="Path 196" d="M6759.158,3329.114a2.235,2.235,0,0,1-.145-3.631c.871-.363,3.341,1.816,3.2,2.469C6761.991,3328.678,6760.175,3329.768,6759.158,3329.114Z" transform="translate(-1755.664 -829.422)" fill="#68605a"/>
      <path id="Path_197" data-name="Path 197" d="M6714.106,3239.91a1.682,1.682,0,0,1,.581,2.106l.218-.073a1.9,1.9,0,0,0-.581-2.4,1.587,1.587,0,0,0-2.251.073l-.073.145A1.663,1.663,0,0,1,6714.106,3239.91Z" transform="translate(-1712.863 -749.368)" fill="#68605a"/>
      <path id="Path_198" data-name="Path 198" d="M6853.106,3366.548a1.811,1.811,0,0,1,.653,2.106l.146-.145a1.811,1.811,0,0,0-.581-2.324,1.531,1.531,0,0,0-2.251.073l-.073.145A1.577,1.577,0,0,1,6853.106,3366.548Z" transform="translate(-1841.768 -866.783)" fill="#68605a"/>
      <path id="Path_199" data-name="Path 199" d="M7979.62,4005.112l-.073,1.815A19.965,19.965,0,0,0,7968,3994S7977.514,3996.251,7979.62,4005.112Z" transform="translate(-2877.647 -1449.426)" fill="#9ba95a"/>
      <path id="Path_200" data-name="Path 200" d="M8044.586,2907.776l-.145,1.961A33.633,33.633,0,0,0,8035,2891,27.216,27.216,0,0,1,8044.586,2907.776Z" transform="translate(-2939.781 -426.531)" fill="#9ba95a"/>
      <path id="Path_201" data-name="Path 201" d="M8157,4447.033l.073,2.034c1.67-11.765,7.263-17.067,7.263-17.067S8158.308,4436.648,8157,4447.033Z" transform="translate(-3052.921 -1855.616)" fill="#9ba95a"/>
      <path id="Path_202" data-name="Path 202" d="M8123.363,3403.179l-.363,1.961c4.067-11.765,10.749-17.139,10.749-17.139S8126.7,3392.721,8123.363,3403.179Z" transform="translate(-3021.39 -887.436)" fill="#9ba95a"/>
      <path id="Path_203" data-name="Path 203" d="M8218.436,2686.564l-.436,1.961A31.842,31.842,0,0,1,8232.525,2674,25.566,25.566,0,0,0,8218.436,2686.564Z" transform="translate(-3109.49 -225.29)" fill="#9ba95a"/>
      <path id="Path_204" data-name="Path 204" d="M8118.279,2716.214c-.145-1.307-16.921-129.271,10.894-182.214l.727.436c-27.6,52.362-8.933,180.036-8.787,181.343Z" transform="translate(-3012.24 -95.457)" fill="#9ba95a"/>
      <path id="Path_205" data-name="Path 205" d="M8214.818,4187.084c-.508-16.559,12.637-24.766,29.2-23.022C8239.8,4181.709,8224.768,4195,8214.818,4187.084Z" transform="translate(-3106.526 -1606.923)" fill="#9ba95a"/>
      <path id="Path_206" data-name="Path 206" d="M7660.826,3855.985c-3.123-16.05-17.43-20.625-32.826-14.815C7635.844,3857,7653.056,3866.007,7660.826,3855.985Z" transform="translate(-2562.339 -1305.455)" fill="#9ba95a"/>
      <path id="Path_207" data-name="Path 207" d="M8198.744,3155.437c17.5,9.8,33.407-1.743,40.742-23.022C8218.28,3127.767,8195.84,3138.879,8198.744,3155.437Z" transform="translate(-3091.397 -649.427)" fill="#9ba95a"/>
      <path id="Path_208" data-name="Path 208" d="M8370,2450.453c16.2,14.6,35.295,6.463,47.5-14.017C8396.363,2426.342,8371.961,2430.191,8370,2450.453Z" transform="translate(-3250.452)" fill="#9ba95a"/>
      <path id="Path_209" data-name="Path 209" d="M7793.207,2492.943c6.827-19.536-5.665-34.86-25.927-39.943C7765.683,2475.876,7778.537,2498.1,7793.207,2492.943Z" transform="translate(-2691.379 -20.34)" fill="#9ba95a"/>
      <path id="Path_210" data-name="Path 210" d="M7752,4915.272h61.295V4838H7752Z" transform="translate(-2677.333 -2232.131)" fill="#ead9b9"/>
      <path id="Path_211" data-name="Path 211" d="M7799.424,4902.927c-22.659,0-41.251-28.542-42.993-64.927H7752v77.272h61.295v-16.123A27.845,27.845,0,0,1,7799.424,4902.927Z" transform="translate(-2677.333 -2232.131)" fill="#dbcba7"/>
    </g>
  </g>
</svg>
