<svg xmlns="http://www.w3.org/2000/svg" width="854.876" height="574.857" viewBox="0 0 854.876 574.857"><g transform="translate(-127 -675)"><g transform="translate(127 675)"><path d="M1214.12,1252.751c-40.623-9.453-75.37-35.513-105.263-28.87-16.607,3.577-26.827,13.03-32.7,25.8-5.365,12.008-7.154,26.827-7.154,43.434h155.595Z" transform="translate(-828.327 -1082.849)" fill="#a99588"/><path d="M1214.12,1283.5c-40.623-8.431-75.37-31.17-105.263-25.294-16.607,3.066-26.827,11.242-32.7,22.483-5.365,10.475-7.154,23.505-7.154,38.068h155.595Z" transform="translate(-828.327 -1108.49)" fill="#9e887a"/><path d="M1160.466,1333.12c0-6.132-6.9-10.731-14.563-9.964l-9.2,1.022c-2.555-20.95-18.14-43.178-34.747-43.178-18.14,0-32.958,18.14-32.958,40.623a44.94,44.94,0,0,0,1.533,11.753h66.428v-.255Z" transform="translate(-828.327 -1126.172)" fill="#a99588"/><path d="M1279.61,1470H867.5a54.114,54.114,0,0,0-51.865,39.09L786,1610.521l40.112,116.5h480.325l59.785-143.842-37.557-81.5A54.229,54.229,0,0,0,1279.61,1470Z" transform="translate(-617.631 -1266.884)" fill="#8665aa"/><path d="M1077,1470c23.761,6.132,58.763,10.22,97.6,10.22s73.837-4.088,97.6-10.22Z" transform="translate(-834.283 -1266.884)" fill="#644898"/><path d="M1292.787,1467.766c4.854,38.835,7.409,74.859,5.621,106.029L1198,1605.477,1260.6,1467Z" transform="translate(-924.368 -1264.65)" fill="#644898"/><path d="M1089.78,1919.848c-128.768,0-238.885-29.381-290.239-83.29L786,1882.8l40.112,116.5h480.325l59.785-143.842-2.555-18.4C1330.964,1823.273,1205.773,1919.848,1089.78,1919.848Z" transform="translate(-617.631 -1539.165)" fill="#644898"/><path d="M2774.477,1788h0c39.346,0,63.618,31.937,54.675,71.282l-50.843,219.212H2636l50.843-219.212C2695.785,1819.937,2735.131,1788,2774.477,1788Z" transform="translate(-1994.971 -1503.637)" fill="#8665aa"/><path d="M2122,1767.495l10.731,65.151c1.788,9.2,33.214,21.717,41.39,16.607,86.356-53.4,122.125-103.474,275.931-132.6V1711.8S2202.991,1707.454,2122,1767.495Z" transform="translate(-1612.294 -1446.853)" fill="#57454c"/><path d="M2329.459,1736.307c-85.079,12.519-152.273,34.236-154.828,15.841a2.822,2.822,0,0,1,0-2.044c-20.95,6.9-39.09,15.074-52.631,25.038l10.731,65.15c1.788,9.2,33.214,21.717,41.39,16.607,86.356-53.4,122.125-103.474,275.931-132.6V1722C2421.948,1726.6,2378,1729.154,2329.459,1736.307Z" transform="translate(-1612.294 -1454.5)" fill="#4c3d43"/><path d="M2191.872,1397.977c-30.148,1.277-145.886,108.839-145.886,108.839L2035,1581.165l48.032,36.791c27.338-3.321,55.442-31.681,67.705-58.508,17.374-38.068,49.31-85.334,52.376-87.378,6.132-3.577,113.439,27.849,113.439,27.849l3.066-2.81S2211.034,1396.955,2191.872,1397.977Z" transform="translate(-1547.521 -1213.257)" fill="#57454c"/><path d="M2187.784,1564s-61.062,84.057-86.1,86.612c-16.607,1.533-22.483-19.928-17.885-53.909-21.717,18.906-37.813,33.725-37.813,33.725L2035,1704.776l48.032,36.791c27.338-3.321,60.041-29.126,72.3-55.953,17.373-38.068,44.711-87.889,47.777-89.933,6.132-3.577,113.439,27.849,113.439,27.849l.511-.511Z" transform="translate(-1547.521 -1336.868)" fill="#4c3d43"/><path d="M1119.018,1452.37c-47.01,3.577-59.019-45.733-47.266-75.37l3.832,1.022c-3.322,7.154-7.92,44.2,13.286,53.653,21.461,9.453,37.557.255,42.412,8.942C1135.625,1448.793,1125.916,1451.859,1119.018,1452.37Z" transform="translate(-827.246 -1197.645)" fill="#a99588"/><path d="M1246.029,1556.333c-6.643-16.607-48.033-13.286-53.653-5.365-5.621,7.665-8.942,64.9-52.376,103.474l92.233-15.585C1237.853,1627.616,1252.416,1572.94,1246.029,1556.333Z" transform="translate(-881.187 -1322.303)" fill="#f05d83"/><path d="M1192.538,1721.6c-13.286-2.811-21.461-18.906-22.483-39.6-6.387,21.717-22.994,53.4-49.054,76.392l99.131-14.819c3.321-6.9,8.176-31.937,11.5-52.631C1221.919,1711.893,1206.59,1724.667,1192.538,1721.6Z" transform="translate(-867.041 -1424.72)" fill="#e04274"/><path d="M1322.865,1782.319c-2.044,48.032,12.775,81.5,53.653,118.8-22.228,16.1-98.109,28.36-243.739,20.439-45.478-2.555-86.612-19.162-78.436-55.7l-4.343-3.832,18.14-30.4L1099.821,1814S1151.43,1776.7,1322.865,1782.319Z" transform="translate(-814.181 -1498.978)" fill="#f05d83"/><path d="M1371.1,2172.11c-35.513,19.928-89.167,32.7-149.207,32.7-65.151,0-122.636-14.819-157.894-37.813,4.343,26.571,40.112,39.346,79.2,41.39,145.63,7.92,221.511-4.343,243.739-20.439C1381.066,2182.585,1375.956,2177.22,1371.1,2172.11Z" transform="translate(-824.604 -1785.806)" fill="#e04274"/><path d="M1304.981,1865.112c0-33.214,6.9-62.851,17.629-81.5-36.28-1.022-100.153,4.088-126.213,5.876-9.964,20.95-15.074,28.615-45.478,46.5-47.266,28.1-78.947,43.178-89.422,19.417a20.163,20.163,0,0,1-2.044-7.92L1050,1863.324l4.343,3.832c-8.176,36.535,32.958,53.142,78.436,55.7,79.714,4.343,138.732,2.555,179.355-2.555C1307.536,1904.458,1304.981,1885.551,1304.981,1865.112Z" transform="translate(-814.181 -1500.269)" fill="#e04274"/><path d="M971.214,1901.887,938,1856.92l39.857-7.92,32.192,18.4S989.1,1878.126,971.214,1901.887Z" transform="translate(-730.796 -1549.052)" fill="#f08064"/><path d="M858.166,1651.467c-2.555,7.665,2.81,21.717,13.541,32.958,12.519,13.285,31.425,24.016,35.513,24.527,8.687,1.022,32.448-20.695,32.958-25.8.511-4.854-40.368-52.887-49.565-54.675C881.161,1626.685,862.51,1638.437,858.166,1651.467Z" transform="translate(-670.891 -1384.734)" fill="#fab684"/><path d="M2028.933,1230l-51.865,6.132L1939,1371.542l48.543,4.854Z" transform="translate(-1476.049 -1088.202)" fill="#f2e4ce"/><path d="M2038.093,1249l-39.09,4.854-35,125.7h36.28Z" transform="translate(-1494.661 -1102.348)" fill="#5cc6ec"/><path d="M2058.9,1346l-22.228,2.555L2017,1419.582h20.439Z" transform="translate(-1534.12 -1174.565)" fill="#f2e4ce"/><path d="M1730.2,1757l-137.2,8.176v5.621l137.2-2.555Z" transform="translate(-1218.449 -1480.558)" fill="#f2e4ce"/><path d="M392,1445.487h5.11V946H392Z" transform="translate(-324.295 -876.762)" fill="#c0b094"/><path d="M392,1263.757h5.11V1182H392Z" transform="translate(-324.295 -1052.466)" fill="#91826b"/><path d="M241.971,675H151.527L127,825.485,277.485,812.2Z" transform="translate(-127 -675)" fill="#fad95b"/><path d="M290.661,2877H249.783L225,2889.263h90.444Z" transform="translate(-199.962 -2314.407)" fill="#c0b094"/><path d="M1090.325,1966.831c58.508,8.176,69.494,19.162,87.123,10.731s62.34,50.588,41.134,61.574c-21.461,10.986-104.5,15.841-144.1,3.321-20.184-6.387-30.659-30.4-26.316-48.543C1052.512,1976.284,1071.163,1964.02,1090.325,1966.831Z" transform="translate(-812.094 -1636.48)" fill="#f05d83"/><path d="M1177.448,2007.607c-3.321,1.533,12.008,45.733,6.387,48.033-34.747,15.074-127.235-23.25-133.622-37.046a46.061,46.061,0,0,0-2.044,5.365c-4.343,18.14,6.132,42.156,26.316,48.543,39.6,12.519,122.636,7.665,144.1-3.321C1239.788,2058.194,1195.077,1999.176,1177.448,2007.607Z" transform="translate(-812.094 -1666.525)" fill="#e04274"/><path d="M1595.7,1708s-34.236,60.3-62.085,78.692c-5.876,4.088,10.731,67.194,45.222,58.763,36.791-8.942,42.923-134.644,42.923-134.644Z" transform="translate(-1173.369 -1444.077)" fill="#fab684"/><path d="M1610,1789.293c-12.008,36.791-29.637,61.829-47.521,60.041-9.453-1.022-18.4-8.431-23.761-20.184a24.3,24.3,0,0,1-5.11,3.832c-5.876,4.088,10.731,67.194,45.222,58.763,28.359-6.9,38.579-83.8,41.645-118.037C1621.247,1763.489,1613.837,1777.541,1610,1789.293Z" transform="translate(-1173.369 -1490.368)" fill="#f79c70"/><path d="M1585.853,1352.824c-18.4-10.986-13.541-42.156-13.541-42.156s23.25-1.533,35.769,6.643c12.775,8.176,14.308,33.98,14.308,33.98S1598.372,1360.489,1585.853,1352.824Z" transform="translate(-1202.615 -1148.175)" fill="#a99588"/><path d="M1631.286,1241A34.717,34.717,0,0,0,1618,1262.206l18.14,1.022C1637.162,1255.563,1631.286,1241,1631.286,1241Z" transform="translate(-1237.062 -1096.392)" fill="#a99588"/><path d="M1639.942,1258a22.65,22.65,0,0,0-8.942,14.052l12.008.767C1643.775,1267.709,1639.942,1258,1639.942,1258Z" transform="translate(-1246.74 -1109.048)" fill="#68605a"/><path d="M1748.739,1349.934a35.14,35.14,0,0,1-15.585,19.928L1726,1353.255C1732.9,1349.423,1748.739,1349.934,1748.739,1349.934Z" transform="translate(-1317.468 -1177.477)" fill="#a99588"/><path d="M1757.563,1360.975a21.932,21.932,0,0,1-9.964,12.775l-4.6-10.731C1747.343,1360.72,1757.563,1360.975,1757.563,1360.975Z" transform="translate(-1330.125 -1185.708)" fill="#68605a"/><path d="M832.559,1697.832c-40.112-14.563-67.45-46.5-59.019-64.9,11.242-25.038,35-31.681,50.076-31.937l.255,6.9s-26.571,3.832-19.928,27.338c4.088,13.541,21.972,25.294,21.972,25.294l-4.854,12.519Z" transform="translate(-607.215 -1364.414)" fill="#5f433e"/><path d="M923.062,1842.828c1.022-4.344-4.088-8.942-10.986-10.22-6.9-1.533-13.286.766-14.308,4.854-.766,4.343,4.088,8.942,10.986,10.219C915.908,1849.215,922.3,1846.916,923.062,1842.828Z" transform="translate(-700.784 -1536.493)" fill="#fab684"/><path d="M939.922,1850.335c.511-2.555-2.81-4.854-6.9-5.621-4.343-.511-7.92,1.022-8.176,3.577-.511,2.555,2.81,5.11,6.9,5.876C936.09,1854.679,939.667,1852.89,939.922,1850.335Z" transform="translate(-720.966 -1545.789)" fill="#f08064"/><path d="M959.9,1858.244c.255-1.533-1.788-3.321-4.6-3.577-2.81-.511-5.11.766-5.365,2.3s1.788,3.321,4.6,3.577C957.346,1861.054,959.646,1860.032,959.9,1858.244Z" transform="translate(-739.667 -1553.186)" fill="#fab684"/><path d="M1400.089,1273.271c3.577-6.387-18.14-23.25-27.849-17.118-9.453,5.876-34.747,56.975-37.3,85.59-1.277,15.585,56.208,17.118,57.486,5.11C1393.7,1334.589,1394.979,1281.958,1400.089,1273.271Z" transform="translate(-1026.305 -1106.69)" fill="#fab684"/><path d="M1364.576,1449.587c-12.264-2.555-27.593-5.621-14.052-50.587-7.665,16.862-14.308,36.024-15.585,50.076-1.277,15.585,56.208,17.118,57.486,5.11.766-6.643,1.533-25.549,2.81-42.667C1392.935,1447.8,1376.328,1452.4,1364.576,1449.587Z" transform="translate(-1026.305 -1214.024)" fill="#f79c70"/><path d="M1494.532,2293H1106.184A20.064,20.064,0,0,0,1086,2313.184v141.287h428.715V2313.184A20.064,20.064,0,0,0,1494.532,2293Z" transform="translate(-840.983 -1879.614)" fill="#8665aa"/><path d="M535.045,1788h0c-39.346,0-63.873,31.937-54.675,71.282l50.843,219.212H673.521l-50.843-219.212C613.481,1819.937,574.39,1788,535.045,1788Z" transform="translate(-388.648 -1503.637)" fill="#8665aa"/><path d="M3123.044,1742.972h13.03L3154.726,1721s-20.95,9.964-29.382,13.286C3117.168,1737.351,3123.044,1742.972,3123.044,1742.972Z" transform="translate(-2356.058 -1453.755)" fill="#f2e4ce"/><path d="M3385.883,1662.681l15.33-31.681h0c-.511.511-23.25,17.629-24.527,23.761S3385.883,1662.681,3385.883,1662.681Z" transform="translate(-2546.336 -1386.75)" fill="#f2e4ce"/><path d="M1516.825,2006.4c-1.278,32.959,18.14,70.771,30.148,70.771,11.753,0,31.17-5.876,30.659-18.14,0,0-17.374,0-52.12-54.165C1522.957,2001.039,1517.081,2004.36,1516.825,2006.4Z" transform="translate(-1161.691 -1663.789)" fill="#f2e4ce"/><path d="M1309.093,1602.136c-6.387-6.387-1.788-19.673,4.854-20.184s38.068,11.242,57.23,6.132c3.321-1.022,2.81,11.5-.255,15.84C1363.257,1614.911,1318.035,1611.079,1309.093,1602.136Z" transform="translate(-1004.802 -1350.221)" fill="#f2e4ce"/><path d="M1634.87,1406.45c3.066,3.066,7.409-2.3,7.409-2.3s-3.322,5.11.511,8.176,10.475-2.044,1.022-9.453C1635.636,1396.23,1627.716,1398.785,1634.87,1406.45Z" transform="translate(-1247.544 -1214.064)" fill="#d5c4bc"/><path d="M1662.144,1410.722c-2.555-1.788-1.789-5.365-.256-5.876,1.789-.511,5.876,2.811,5.621,4.088C1667.253,1409.955,1663.932,1411.744,1662.144,1410.722Z" transform="translate(-1268.686 -1218.336)" fill="#68605a"/><path d="M1641.577,1365.277a2.984,2.984,0,0,1,1.022,3.577l.255-.255c1.022-1.022.511-2.81-.766-3.832-1.533-1.022-3.066-1.022-4.088,0v.255A2.747,2.747,0,0,1,1641.577,1365.277Z" transform="translate(-1251.952 -1187.966)" fill="#68605a"/><path d="M1709.832,1424.363c1.022,1.022,1.533,2.555,1.022,3.577l.256-.255c.766-1.022.255-2.555-1.022-3.832-1.278-1.022-3.066-1.022-3.833.255l-.255.255A3.474,3.474,0,0,1,1709.832,1424.363Z" transform="translate(-1302.578 -1231.977)" fill="#68605a"/><path d="M1232,2872.884h353.345V2855H1232Z" transform="translate(-949.681 -2298.028)" fill="#644898"/><path d="M1140.95,2552H1168.8L1120,2424Z" transform="translate(-866.296 -1977.145)" fill="#644898"/><path d="M2580.593,2552H2553l48.8-128Z" transform="translate(-1933.177 -1977.145)" fill="#644898"/><path d="M577.478,1891.5c27.849,0,55.953,18.4,69.749,43.689-8.176-30.659-39.09-55.186-70-55.186-25.549,0-43.178,16.607-45.222,39.6C539.154,1902.739,555.761,1891.5,577.478,1891.5Z" transform="translate(-428.526 -1572.132)" fill="#644898"/><path d="M2957.75,1891.5c-28.1,0-55.953,18.4-69.75,43.689,8.176-30.659,39.09-55.186,70-55.186,25.549,0,43.178,16.607,45.222,39.6C2996.073,1902.739,2979.466,1891.5,2957.75,1891.5Z" transform="translate(-2182.587 -1572.132)" fill="#644898"/><path d="M1584.871,2164c-4.343,9.2-10.475,15.074-17.374,15.074-4.088,0-8.176-2.044-11.5-5.876,6.132,14.052,14.052,23.761,20.184,23.761,11.753,0,31.17-5.876,30.659-18.14C1606.843,2178.819,1599.689,2178.819,1584.871,2164Z" transform="translate(-1190.902 -1783.572)" fill="#dec9ad"/><path d="M566.354,939.51,542.082,846c-1.022,41.9-11.5,78.181-27.082,98.109Z" transform="translate(-415.869 -802.311)" fill="#f5ce38"/><path d="M143.862,855,127,959.5l47.777-4.343C157.4,936.757,145.4,899.2,143.862,855Z" transform="translate(-127 -809.011)" fill="#f5ce38"/><path d="M691,1102.255v0Z" transform="translate(-546.903 -992.905)" fill="#fdc362"/><path d="M1562.746,1307.4c6.387-3.066,5.621-9.453,20.95-10.986,2.555-.511,3.577-6.387.511-6.9-2.81-.511-20.184-.511-24.016-.511C1556.614,1289,1555.848,1310.461,1562.746,1307.4Z" transform="translate(-1192.027 -1132.128)" fill="#fab684"/><path d="M1541.772,1269.42c4.854-6.132,14.052-2.81,13.541,2.81C1554.8,1278.106,1537.173,1274.529,1541.772,1269.42Z" transform="translate(-1179.74 -1115.102)" fill="#fab684"/><path d="M1510.971,1258.42c5.11-6.132,14.307-2.81,13.541,2.81C1524,1266.851,1506.627,1263.529,1510.971,1258.42Z" transform="translate(-1156.859 -1106.913)" fill="#fab684"/><path d="M1785.4,1679.1c-22.228-3.832-26.571,3.577-30.4,19.162l28.615-.511s9.964-3.066,16.607-3.321C1807.12,1694.173,1807.631,1682.931,1785.4,1679.1Z" transform="translate(-1339.059 -1421.818)" fill="#fab684"/><path d="M1916,1715.73c1.533,8.176,1.022,12.008,4.088,12.519,2.811.511,6.132-.255,6.387-2.044,0-1.788-1.022-12.008-3.577-12.775C1920.6,1712.409,1916,1715.73,1916,1715.73Z" transform="translate(-1458.925 -1447.975)" fill="#fab684"/><path d="M1874,1712.941c1.533,8.431,1.277,12.008,4.088,12.519,3.066.511,6.132-.255,6.387-2.044.256-1.533-.767-11.753-3.321-12.775C1878.6,1709.875,1874,1712.941,1874,1712.941Z" transform="translate(-1427.656 -1445.952)" fill="#fab684"/><path d="M1007.039,1718.875c-1.533-2.044-4.088-3.066-5.365-2.044-1.277,1.278-1.022,3.833.766,6.132,1.533,2.044,4.088,3.066,5.365,1.788C1009.083,1723.73,1008.827,1721.175,1007.039,1718.875Z" transform="translate(-777.607 -1450.353)" fill="#5f4d50"/><path d="M959.022,1681.962l-8.431,7.409a1.612,1.612,0,0,0,0,2.3l2.3,2.555a1.907,1.907,0,0,0,2.3,0l8.431-7.409a1.612,1.612,0,0,0,0-2.3l-2.3-2.3A1.617,1.617,0,0,0,959.022,1681.962Z" transform="translate(-739.81 -1424.426)" fill="#5f433e"/><path d="M1049.006,1691.926c-1.277-1.788-2.81-2.555-3.577-1.788-.511.766,0,2.81,1.277,4.343,1.277,1.788,2.81,2.555,3.321,1.788C1050.795,1695.5,1050.284,1693.715,1049.006,1691.926Z" transform="translate(-810.632 -1430.558)" fill="#5f4d50"/><path d="M1013.54,1646.8l-3.832,3.321c-.255.256,0,1.277.511,1.789l2.3,2.555c.511.766,1.277,1.022,1.533.766l3.832-3.321c.255-.256.255-1.022-.511-1.789l-2.044-2.555C1014.818,1647.057,1014.051,1646.547,1013.54,1646.8Z" transform="translate(-784.109 -1398.464)" fill="#5f433e"/><path d="M1044,1723c9.709,1.277,15.585,3.066,16.607,6.132.511,2.044-.766,4.088-2.3,5.365l.255.255s5.621-3.832,4.854-7.154C1062.906,1724.277,1055.753,1723.255,1044,1723Z" transform="translate(-809.714 -1455.244)" fill="#f08064"/><path d="M1083.775,1779,1071,1788.453s3.577,9.709,12.264,4.344C1089.906,1788.964,1083.775,1779,1083.775,1779Z" transform="translate(-829.816 -1496.937)" fill="#49373f"/><path d="M1090.753,1788.088a16.3,16.3,0,0,0-1.533-4.088l-10.22,7.665a10.058,10.058,0,0,0,3.321,3.832Z" transform="translate(-835.772 -1500.659)" fill="#feead4"/></g></g></svg>