<svg xmlns="http://www.w3.org/2000/svg" width="199.501" height="196.826" viewBox="0 0 199.501 196.826"><g transform="translate(-5493.079 -2735)"><path d="M6646.021,3749c5.43,7.354,19.793,31.269,20.205,32.026.481.687-3.229,16.012-6.186,15.669-6.391-.825-20.273-14.707-21.51-16.494C6637.362,3778.414,6646.021,3749,6646.021,3749Z" transform="translate(-1066.631 -944.314)" fill="#8665aa"/><path d="M6646.653,3977.8a49.011,49.011,0,0,1-4.879-8.8c-2.062,7.491-3.987,15.188-3.368,16.082,1.167,1.787,15.05,15.669,21.51,16.494,1.993.275,4.536-5.773,5.911-9.965C6660.466,3991.816,6652.7,3986.387,6646.653,3977.8Z" transform="translate(-1066.506 -1149.194)" fill="#7658a3"/><path d="M6886.287,4132c-4.673.068-11,12.165-7.972,22.4,0,0,8.316,2.2,12.782-2.13C6895.5,4148.013,6886.287,4132,6886.287,4132Z" transform="translate(-1289.302 -1300.992)" fill="#7658a3"/><path d="M7453,2870.727A28.693,28.693,0,1,0,7481.657,2842,28.7,28.7,0,0,0,7453,2870.727Z" transform="translate(-1825.227 -99.647)" fill="#fad95b"/><path d="M5516.988,3802h-19.311a4.523,4.523,0,0,0-4.4,5.841l20.342,71.129h30.651l-20.617-71.885A6.909,6.909,0,0,0,5516.988,3802Z" transform="translate(0 -993.671)" fill="#f7be4f"/><path d="M5811.03,4966.664h1.237l1.375-46.664H5810Z" transform="translate(-295.141 -2034.838)" fill="#c0b094"/><path d="M6043.031,4966.664h1.168l1.375-46.664H6042Z" transform="translate(-511.197 -2034.838)" fill="#c0b094"/><path d="M6120.093,4966.664h1.236l-.687-46.664H6117Z" transform="translate(-581.043 -2034.838)" fill="#c0b094"/><path d="M6352.023,4966.664h1.238l-.687-46.664H6349Z" transform="translate(-797.099 -2034.838)" fill="#c0b094"/><path d="M5832.784,4889h-40.41a1.378,1.378,0,0,0-1.375,1.374v.894a1.379,1.379,0,0,0,1.375,1.375h40.41a1.378,1.378,0,0,0,1.374-1.375v-.894A1.378,1.378,0,0,0,5832.784,4889Z" transform="translate(-277.447 -2005.968)" fill="#f7be4f"/><path d="M5557.731,3850.588c2.2-13.676,7.56-25.153,13.951-31.613l-3.574-12.508a6.184,6.184,0,0,0-5.91-4.467h-17.181a4.1,4.1,0,0,0-3.917,5.154l15.669,54.567A70.31,70.31,0,0,1,5557.731,3850.588Z" transform="translate(-44.591 -993.671)" fill="#fad95b"/><path d="M6279.082,4582.384h-15.188c-10.1,0-20.067-13.47-12.783-20.067,2.955-2.68,7.766-3.368,14.088-3.574,11.958-.412,32.988,5.979,35.737,10.79,2.886,5.085-7.835,58.416-7.835,58.416l-.756.343Z" transform="translate(-703.608 -1698.389)" fill="#e4d4be"/><path d="M6467.082,4560c-1.374.756-5.017,1.649-5.154,2.749-.275,3.437,10.034,6.873,19.586,7.766,6.735.618,12.714-.275,15.738-2.062C6491.41,4564.6,6477.253,4560.481,6467.082,4560Z" transform="translate(-902.26 -1699.578)" fill="#f2e4ce"/><path d="M6017.55,4586.315h-15.257c-10.034,0-13.882-4.879-12.989-15.257,0,0,15.051-8.316,22.266-8.109,6.392.137,19.793,5.7,23.985,10.515,4.4,5.086,9.69,58.416,9.69,58.416l-.687.343Z" transform="translate(-462.007 -1702.321)" fill="#e4d4be"/><path d="M6229.263,4604.446a9.033,9.033,0,0,0-1.1-2.062c-2.612-3.024-8.8-6.323-14.639-8.384-9.69.069-17.524,3.161-17.524,7.01,0,3.917,7.972,7.078,17.73,7.078C6220.4,4608.088,6226.239,4606.577,6229.263,4604.446Z" transform="translate(-654.614 -1731.242)" fill="#f2e4ce"/><path d="M5981.107,3706.41c10.653-6.735,42.06-15.669,42.06-15.669s12.988-51.2,10.79-54.979c-2.2-3.848-8.935-8.315-14.089-9.483-5.085-1.169-24.054,5.223-34.637,39.928C5977.6,3691.29,5981.107,3706.41,5981.107,3706.41Z" transform="translate(-453.741 -829.907)" fill="#8665aa"/><path d="M6322.25,3626.386c-2.818-.618-9.759,1.031-17.25,8.316a54.643,54.643,0,0,0,12.646,2.062c7.079,0,12.714-1.375,15.6-4.467A28.234,28.234,0,0,0,6322.25,3626.386Z" transform="translate(-756.123 -830.016)" fill="#7658a3"/><path d="M6454.491,3626.332c-1.443-.344-4.192,0-7.491,1.443,1.305,3.642,5.292,6.391,9.9,6.391a10.378,10.378,0,0,0,7.354-2.955A27.715,27.715,0,0,0,6454.491,3626.332Z" transform="translate(-888.364 -829.962)" fill="#e4d4be"/><path d="M6007.086,3853.421c-10.034-2.887-6.186-19.105-1.993-36.9,1.993-8.522-1.993-21.374-7.354-14.295-4.535,6.048-9,14.5-12.508,26.046-7.628,25.084-4.124,40.2-4.124,40.2,10.653-6.735,42.06-15.669,42.06-15.669s.963-3.3,2.337-8.178C6022.823,3852.39,6011.071,3854.589,6007.086,3853.421Z" transform="translate(-453.741 -991.968)" fill="#7658a3"/><path d="M6481,3487l4.054-11,9.828,4.467-.55,9.827s-2.68,3.093-7.972,2.062C6482.511,3491.6,6481,3487,6481,3487Z" transform="translate(-920.027 -690.075)" fill="#f08064"/><path d="M6518.109,3289.931c-1.854-2.13-5.772-15.257-4.879-18.556s6.254-8.453,8.729-8.384c2.474,0,5.979,3.161,6.185,9.69.206,6.6.55,16.013-.138,16.837C6527.113,3290.618,6518.865,3290.824,6518.109,3289.931Z" transform="translate(-949.921 -491.704)" fill="#fab684"/><path d="M6940.557,3961c-7.491,4.6-16.769,11.408-17.868,12.37-6.666,6.048-4.329,20.067-2.612,20.617,1.788.481,12.715-.343,13.4-2.062.618-1.787,11.683-25.565,11.683-25.565Z" transform="translate(-1327.216 -1141.744)" fill="#fab684"/><path d="M6934.895,4046.422c-6.941,5.5-13.538,8.522-16.356,7.766-1.1,5.91.275,12.1,1.443,12.439,1.787.481,12.714-.344,13.4-2.062.618-1.787,11.683-25.565,11.683-25.565S6938.743,4043.4,6934.895,4046.422Z" transform="translate(-1327.121 -1214.384)" fill="#f79c70"/><path d="M6164.65,3779.2c-.825,15.531,18.349,31.476,25.359,31.338,5.292-.138,10.446-20.687,6.6-21.167-5.635-.618-10.171-8.453-9.965-14.363.206-5.979-4.6-9.072-9.965-10.652C6172.416,3763.045,6164.994,3772.529,6164.65,3779.2Z" transform="translate(-625.394 -958.496)" fill="#8665aa"/><path d="M6196.4,3843.919c-8.315,3.23-18.968-4.33-23.847-16.837a32.372,32.372,0,0,1-2.2-16.082c-3.024,3.78-5.567,8.522-5.7,11.751-.825,15.532,18.349,31.476,25.359,31.339,2.612-.069,5.155-5.154,6.667-10.309A.522.522,0,0,0,6196.4,3843.919Z" transform="translate(-625.394 -1002.053)" fill="#7658a3"/><path d="M6479.016,4126c-4.948.344-13.2,11.271-11.89,21.923,0,0,7.7,3.5,12.852-.137C6485.2,4144.074,6479.016,4126,6479.016,4126Z" transform="translate(-906.978 -1295.405)" fill="#7658a3"/><path d="M6544.963,4060c-8.178,1.924-18.692,4.192-19.86,4.948-7.284,4.88-8.591,20.412-6.8,20.892s10.584,1.031,12.027.275c1.718-.894,16.631-19.655,16.631-19.655Z" transform="translate(-954.096 -1233.941)" fill="#fab684"/><path d="M6535.405,4159.841c-6.116,3.505-12.439,4.879-16.632,4.055-1.236,4.811-1.1,9.209-.206,9.483,1.787.481,10.584,1.031,12.027.275,1.718-.893,16.631-19.655,16.631-19.655S6540.285,4157.092,6535.405,4159.841Z" transform="translate(-954.365 -1321.481)" fill="#f79c70"/><path d="M6976,4406.261h47.694V4402H6976Z" transform="translate(-1381.009 -1552.437)" fill="#f2e4ce"/><path d="M7392.271,3832h45.839l-11.271,42.953H7381Z" transform="translate(-1758.176 -1021.61)" fill="#f2e4ce"/><path d="M7428.271,3832h45.839l-11.271,42.953H7417Z" transform="translate(-1791.702 -1021.61)" fill="#e9dac0"/><path d="M7581.483,3833.718c13.745,0,25.979,4.261,33.675,10.858l3.3-12.576h-45.839l-.618,2.405A61.012,61.012,0,0,1,7581.483,3833.718Z" transform="translate(-1936.049 -1021.61)" fill="#e2d2b9"/><path d="M7804.647,4097.536c.343-2.474-.825-4.536-2.611-4.536s-3.506,2.062-3.85,4.536c-.344,2.543.825,4.536,2.612,4.536S7804.3,4100.079,7804.647,4097.536Z" transform="translate(-2146.635 -1264.673)" fill="#d2c4a9"/><path d="M8076.024,4486H8073v76.49h1.719Z" transform="translate(-2402.618 -1630.664)" fill="#c0b094"/><path d="M7690.023,4486H7687v76.49h1.786Z" transform="translate(-2043.146 -1630.664)" fill="#c0b094"/><path d="M7068.024,4486H7065v76.49h1.718Z" transform="translate(-1463.893 -1630.664)" fill="#c0b094"/><path d="M6710.023,4486H6707v76.49h1.718Z" transform="translate(-1130.495 -1630.664)" fill="#c0b094"/><path d="M6551,4443.71h119.374V4440H6551Z" transform="translate(-985.217 -1587.825)" fill="#e4d6b9"/><path d="M6551,4443.71h41.784V4440H6551Z" transform="translate(-985.217 -1587.825)" fill="#f2e4ce"/><path d="M6768,5557.887h4.948s-1.855-2.887-2.68-2.887S6768,5557.887,6768,5557.887Z" transform="translate(-1187.303 -2626.198)" fill="#ebd5bc"/><path d="M6868,5561.611h6.8s-4.192-2.611-5.292-2.611S6868,5561.611,6868,5561.611Z" transform="translate(-1280.431 -2629.923)" fill="#ebd5bc"/><path d="M6455.209,3221.166l2.2-4.536,3.779-1.031s1.1-11.546-1.854-12.989c0,0,11.545-.206,11.064-4.467-.481-4.192-7.078-5.773-11.409-.412-.275-.756-8.246.138-6.116,3.573C6451.43,3202.542,6451.155,3212.85,6455.209,3221.166Z" transform="translate(-892.931 -427.75)" fill="#984a4c"/><path d="M6510.957,3444.107c-.756-1.718-2.13-2.749-2.955-2.337s-.893,2.062-.137,3.78c.825,1.649,2.13,2.68,2.955,2.268C6511.713,3447.406,6511.782,3445.757,6510.957,3444.107Z" transform="translate(-944.556 -658.114)" fill="#fab684"/><path d="M6521.544,3462.619c-.481-1.031-1.375-1.718-1.924-1.443-.48.206-.55,1.306-.068,2.336.549,1.1,1.374,1.718,1.924,1.513C6522.025,3464.749,6522.025,3463.649,6521.544,3462.619Z" transform="translate(-955.623 -676.213)" fill="#f08064"/><path d="M6533.675,3486.534c-.275-.619-.824-1.031-1.168-.893s-.344.825,0,1.512c.275.619.824,1.031,1.168.894C6533.95,3487.84,6534.019,3487.222,6533.675,3486.534Z" transform="translate(-967.755 -699.029)" fill="#fab684"/><path d="M7841,3661l2.2,9.759,1.855-8.934Z" transform="translate(-2186.562 -862.361)" fill="#fad95b"/><path d="M7662.021,3345.77c-4.055.344-16.493,5.773-23.022,15.6a27.712,27.712,0,0,0,15.188,4.4,28.183,28.183,0,0,0,23.848-13.126C7672.949,3348.587,7665.8,3345.5,7662.021,3345.77Z" transform="translate(-1998.444 -568.779)" fill="#f2e4ce"/><path d="M7846.676,3352.369a35.058,35.058,0,0,0,9.965-1.306c-4.811-3.3-10.653-5.636-13.951-5.361a31.061,31.061,0,0,0-9.69,3.711C7835.68,3351.2,7840.765,3352.369,7846.676,3352.369Z" transform="translate(-2179.112 -568.712)" fill="#dec9ad"/><path d="M7895.171,3195l2.681,11.821s-7.01,3.436-12.852.481l.55-8.385Z" transform="translate(-2227.539 -428.387)" fill="#f79c70"/><path d="M7832.764,3022.22c-2.474,4.948-1.58,20.411-.961,20.961.687.619,11.751-.344,12.507-2.405.825-1.993,1.306-19.105-.481-20.342C7842.11,3019.127,7834.482,3018.784,7832.764,3022.22Z" transform="translate(-2177.365 -264.954)" fill="#fab684"/><path d="M7869.724,3015.124l-1.58-4.33-2.818-.756s1.649-11.339-1.718-11.82c-3.367-.55-8.934,3.986-7.354.618s8.865-5.154,11.683-2.955C7873.779,3000.485,7869.724,3015.124,7869.724,3015.124Z" transform="translate(-2200.512 -242.051)" fill="#6a4e49"/><path d="M8007.043,3166.785c.413-1.512.138-2.886-.755-3.161-.825-.206-1.856.756-2.268,2.268-.481,1.512-.137,2.886.687,3.161C8005.6,3169.328,8006.632,3168.3,8007.043,3166.785Z" transform="translate(-2338.175 -399.142)" fill="#fab684"/><path d="M8015.213,3183.665c.275-.894.068-1.787-.413-1.924-.55-.138-1.168.481-1.444,1.374s-.068,1.787.481,1.924C8014.319,3185.177,8014.938,3184.559,8015.213,3183.665Z" transform="translate(-2346.961 -416.021)" fill="#f08064"/><path d="M8014.992,3204.274c.207-.619.069-1.237-.343-1.375-.344-.069-.757.344-.963,1.031-.206.618-.068,1.237.275,1.305C8014.374,3205.373,8014.786,3204.961,8014.992,3204.274Z" transform="translate(-2347.291 -435.737)" fill="#fab684"/><path d="M7205.149,3874.317c.068-3.23,2.405-6.6,5.359-6.391,0,0,1.031-1.856,2.2-1.306,1.236.55,4.741,2.68,3.985,5.5s-3.711,7.7-8.315,7.422C7203.705,3879.334,7205.149,3874.317,7205.149,3874.317Z" transform="translate(-1594.214 -1053.756)" fill="#fab684"/><path d="M7238,3779.021c2.267-2.542,2.955-8.178,3.573-9.277.619-1.168,2.474-.894,2.543.206,0,1.1-1.375,6.391-2.13,7.422C7241.229,3778.472,7238,3779.021,7238,3779.021Z" transform="translate(-1625.003 -962.927)" fill="#fab684"/><path d="M7193.423,3829.42c-1.787-3.711.894-4.192-.207-10.927-.274-1.444,1.993-1.856,2.474-.687a33.943,33.943,0,0,1,.825,8.453C7196.172,3827.633,7193.423,3829.42,7193.423,3829.42Z" transform="translate(-1582.901 -1007.759)" fill="#fab684"/><path d="M7292,3784.4c2.2-2.543,2.955-8.178,3.573-9.278s2.474-.894,2.543.206a30.712,30.712,0,0,1-2.13,7.491C7295.229,3783.852,7292,3784.4,7292,3784.4Z" transform="translate(-1675.292 -967.964)" fill="#fab684"/><path d="M7308,3851.317c2.68-2.062,4.467-7.491,5.223-8.453.824-1.031,2.68-.412,2.474.688a24.466,24.466,0,0,1-3.5,6.941C7311.3,3851.386,7308,3851.317,7308,3851.317Z" transform="translate(-1690.193 -1031.237)" fill="#fab684"/><path d="M6837.659,4000.47c1.168-3.024,4.4-5.429,7.147-4.261,0,0,1.58-1.512,2.543-.55.894.894,3.574,3.986,1.993,6.46-1.649,2.474-5.979,6.117-10.31,4.4S6837.659,4000.47,6837.659,4000.47Z" transform="translate(-1251.259 -1173.723)" fill="#fab684"/><path d="M6901,3909.728c2.887-1.718,5.36-6.8,6.323-7.7s2.68,0,2.336,1.031-3.367,5.636-4.4,6.392S6901,3909.728,6901,3909.728Z" transform="translate(-1311.163 -1086.486)" fill="#fab684"/><path d="M6843.242,3925.49c-.481-4.054,2.268-3.642,3.367-10.377.206-1.443,2.475-1.1,2.543.069a32.4,32.4,0,0,1-1.925,8.315C6846.473,3924.666,6843.242,3925.49,6843.242,3925.49Z" transform="translate(-1257.323 -1098.125)" fill="#fab684"/><path d="M6950,3932.136c2.886-1.718,5.429-6.8,6.323-7.7.962-.825,2.681,0,2.337,1.031a24.7,24.7,0,0,1-4.4,6.391C6953.229,3932.617,6950,3932.136,6950,3932.136Z" transform="translate(-1356.795 -1107.382)" fill="#fab684"/><path d="M6948,4007.523c3.23-1.1,6.6-5.635,7.7-6.322s2.611.481,2.131,1.443c-.55.962-4.4,4.879-5.566,5.429S6948,4007.523,6948,4007.523Z" transform="translate(-1354.932 -1178.99)" fill="#fab684"/><path d="M7943.168,2792c-.412.481-.756,1.031-1.168,1.581a27.067,27.067,0,0,1,25.7,26.115,12.944,12.944,0,0,0,1.58-1.1A28.655,28.655,0,0,0,7943.168,2792Z" transform="translate(-2280.621 -53.083)" fill="#fad95b"/><path d="M7951.237,2735a16.523,16.523,0,0,0-1.237,1.787,30.422,30.422,0,0,1,28.864,29.345,10.379,10.379,0,0,0,1.787-1.237h0A32.2,32.2,0,0,0,7951.237,2735Z" transform="translate(-2288.072)" fill="#fad95b"/><path d="M7918,3161.305c0-.687.274-1.305.687-1.305.481,0,.825.481.894,1.168,0,.756-.275,1.306-.687,1.306C7918.48,3162.542,7918.069,3161.993,7918,3161.305Z" transform="translate(-2258.271 -395.792)" fill="#5f4d50"/><path d="M7917.549,3126l2.749.137a.5.5,0,0,1,.413.481l-.069.825a.459.459,0,0,1-.481.412l-2.749-.206a.4.4,0,0,1-.412-.412l.069-.894C7917.068,3126.137,7917.274,3126,7917.549,3126Z" transform="translate(-2257.339 -364.129)" fill="#6a4e49"/><path d="M7841,3165.227c0-.687.275-1.306.688-1.306.481-.069.824.481.893,1.168,0,.687-.274,1.306-.687,1.306C7841.48,3166.464,7841.068,3165.914,7841,3165.227Z" transform="translate(-2186.562 -399.439)" fill="#5f4d50"/><path d="M7816.412,3123.023l2.75-.206a.374.374,0,0,1,.48.344l.068.825a.454.454,0,0,1-.412.481l-2.749.206c-.275,0-.481-.137-.481-.344l-.069-.894A.4.4,0,0,1,7816.412,3123.023Z" transform="translate(-2163.281 -361.152)" fill="#6a4e49"/><path d="M7873.343,3174c-.893,1.993-1.305,3.3-.824,3.917a1.465,1.465,0,0,0,1.375.412h0s-1.443.55-1.993-.069C7871.281,3177.642,7871.969,3176.2,7873.343,3174Z" transform="translate(-2215.125 -408.83)" fill="#f4826d"/><path d="M7859.068,3274.688l-.068-.207,5.154-.481v.412Z" transform="translate(-2203.325 -501.958)" fill="#f08064"/><path d="M7878,3295.989c0-.206.343-.138.824-.138.412,0,.894-.068.825.138,0,.137-.275.412-.756.412S7878,3296.126,7878,3295.989Z" transform="translate(-2221.02 -522.297)" fill="#f08064"/><path d="M6632.718,3437.375c0-.756-.412-1.375-.894-1.375s-.825.619-.825,1.375c.069.824.482,1.443.895,1.443C6632.374,3438.818,6632.787,3438.131,6632.718,3437.375Z" transform="translate(-1059.718 -652.824)" fill="#5f4d50"/><path d="M6598.324,3393l-3.093.481a.411.411,0,0,0-.413.481l.138.962a.576.576,0,0,0,.55.412l3.093-.481a.411.411,0,0,0,.412-.481l-.137-.962A.576.576,0,0,0,6598.324,3393Z" transform="translate(-1026.012 -612.78)" fill="#984a4c"/><path d="M6703.6,3432.375c-.069-.756-.481-1.375-.963-1.375s-.824.687-.756,1.443.481,1.375.962,1.375S6703.668,3433.13,6703.6,3432.375Z" transform="translate(-1125.72 -648.168)" fill="#5f4d50"/><path d="M6685.6,3391.618,6682.5,3391a.522.522,0,0,0-.55.412l-.137.894a.472.472,0,0,0,.343.55l3.093.619a.473.473,0,0,0,.55-.344l.138-.962A.474.474,0,0,0,6685.6,3391.618Z" transform="translate(-1107.031 -610.917)" fill="#984a4c"/><path d="M6672.137,3472c1.031,1.512,1.581,2.68,1.238,3.437-.207.618-.825.756-1.375.825v.068s1.718.344,2.13-.619C6674.405,3474.955,6673.512,3473.718,6672.137,3472Z" transform="translate(-1097.901 -686.35)" fill="#f08064"/><path d="M6637.429,3554.069,6632,3554a4.223,4.223,0,0,0,2.268,3.23C6636.467,3558.192,6637.429,3554.069,6637.429,3554.069Z" transform="translate(-1060.65 -762.715)" fill="#49373f"/><path d="M6642.5,3559.237a3.962,3.962,0,0,0,.344-1.168L6639,3558a2.173,2.173,0,0,0,.481,1.031Z" transform="translate(-1067.168 -766.44)" fill="#feead4"/></g></svg>