<svg xmlns="http://www.w3.org/2000/svg" width="74" height="73.999" viewBox="0 0 74 73.999"><path d="M6927,131a37.4,37.4,0,0,1-5.756-.445,4.944,4.944,0,0,0,.155-1.252v-17.94h16.633a4.639,4.639,0,0,0,3.349-1.309,4.091,4.091,0,0,0,1.348-3,4.319,4.319,0,0,0-1.348-3.274,4.717,4.717,0,0,0-3.349-1.271H6921.4V88.954h20.1a4.636,4.636,0,0,0,3.351-1.309,4.091,4.091,0,0,0,1.348-3,4.311,4.311,0,0,0-1.348-3.272A4.714,4.714,0,0,0,6941.5,80.1h-25.024a4.6,4.6,0,0,0-4.7,4.7v42.935A37.114,37.114,0,1,1,6927,131Z" transform="translate(-6890 -57.001)" fill="#fff"/></svg>